<svg width="739" height="357" viewBox="0 0 739 357" fill="none" xmlns="http://www.w3.org/2000/svg">
<mask id="path-1-outside-1_3743_830" maskUnits="userSpaceOnUse" x="-0.5" y="-0.5" width="740" height="358" fill="black">
<rect fill="white" x="-0.5" y="-0.5" width="740" height="358"/>
<path d="M738.498 189.566L738.495 22.6319L726.584 11.566L714.674 0.5H581.074H63.5736L32.037 29.7561L0.5 59.0122V197.717V336.421L11.3223 346.461L22.1446 356.5H572.272H738.5L738.498 189.566ZM12.5171 345.352L2.18195 335.764V197.717V59.6692L33.232 30.8648L64.2821 2.06032H581.058H713.934L725.376 12.6745L736.818 23.2887V189.114V354.94H571.785H22.8523L12.5171 345.352ZM583.227 338.146V334.655H580.483H577.739V338.146V341.636H580.483H583.227V338.146ZM572.693 338.146V334.655H569.904H567.116V338.146V341.636H569.904H572.693V338.146ZM562.158 338.146V334.655H559.37H556.581V338.146V341.636H559.37H562.158V338.146ZM551.535 338.146V334.655H548.747H545.958V338.146V341.636H548.747H551.535V338.146ZM715.534 339.382C720.469 338.199 722.71 332.853 719.939 328.876C718.949 327.457 717.416 326.416 715.609 325.936C714.601 325.668 712.737 325.668 711.729 325.936C707.495 327.06 705.202 331.115 706.624 334.962C707.867 338.323 711.805 340.277 715.534 339.382ZM712.262 337.861C711.238 337.618 710.413 337.179 709.632 336.463C706.524 333.612 707.745 328.875 711.934 327.532C712.961 327.203 714.429 327.216 715.494 327.563C717.286 328.148 718.558 329.338 719.156 330.989C720.589 334.949 716.629 338.897 712.262 337.861ZM26.5516 339.419C29.2881 338.775 31.32 336.873 32.0774 334.245C32.3314 333.363 32.2845 331.693 31.9792 330.755C30.4855 326.162 24.7493 324.249 20.5486 326.943C16.6926 329.416 16.2053 334.573 19.5425 337.589C20.4971 338.452 21.4082 338.961 22.6755 339.337C23.579 339.606 25.5762 339.648 26.5516 339.419ZM23.3933 337.861C22.3331 337.609 21.5442 337.185 20.7194 336.425C17.195 333.176 19.4498 327.627 24.4277 327.299C28.0038 327.063 31.0447 330.106 30.5098 333.384C29.9885 336.58 26.7033 338.646 23.3933 337.861ZM28.3044 105.952C29.5445 105.584 29.7957 104.022 28.7129 103.412C27.3014 102.617 25.7219 104.114 26.6394 105.377C26.9857 105.854 27.7485 106.117 28.3044 105.952ZM23.2282 105.939C23.8757 105.757 24.4011 104.956 24.2648 104.357C23.9314 102.894 21.72 102.785 21.3058 104.212C20.9954 105.281 22.0845 106.26 23.2282 105.939ZM715.815 104.539C717.764 103.844 718.37 101.492 716.967 100.067C716.263 99.3528 715.808 99.17 714.731 99.17C713.943 99.17 713.797 99.1939 713.403 99.3884C711.517 100.319 711.125 102.492 712.599 103.858C713.493 104.688 714.689 104.941 715.815 104.539ZM28.5225 101.395C29.1416 101.145 29.5349 100.391 29.3602 99.7895C29.0419 98.6929 27.5977 98.3519 26.7805 99.1803C25.686 100.29 27.0297 101.998 28.5225 101.395ZM23.3881 101.395C24.0072 101.145 24.4004 100.391 24.2257 99.7895C23.9037 98.6803 22.4137 98.3434 21.6335 99.2035C20.5901 100.354 21.9038 101.995 23.3881 101.395ZM28.5269 96.9193C29.8019 96.3821 29.6211 94.6119 28.2586 94.2936C26.5144 93.8862 25.6244 96.1377 27.2319 96.891C27.7088 97.1145 28.046 97.1219 28.5269 96.9193ZM23.4 96.9162C24.8571 96.3024 24.3681 94.2601 22.764 94.2601C21.1365 94.2601 20.6568 96.2962 22.1373 96.92C22.5963 97.1134 22.9341 97.1124 23.4 96.9162ZM715.572 95.6897C717.832 95.0018 718.491 92.3928 716.774 90.9298C716.123 90.3753 715.675 90.2194 714.731 90.2194C711.524 90.2194 710.544 94.1147 713.403 95.4951C713.876 95.7233 715.101 95.8331 715.572 95.6897ZM28.6145 92.4038C29.6934 91.7934 29.645 90.3916 28.5279 89.8999C27.1648 89.2998 25.7942 90.7963 26.6418 91.9593C27.0535 92.5242 28.0175 92.7414 28.6145 92.4038ZM23.4801 92.4038C24.559 91.7934 24.5105 90.3916 23.3934 89.8999C22.0303 89.2998 20.6598 90.7963 21.5074 91.9593C21.9191 92.5242 22.8831 92.7414 23.4801 92.4038ZM28.5225 87.7626C29.1416 87.5124 29.5349 86.7589 29.3602 86.1572C29.0443 85.069 27.6935 84.7307 26.8123 85.5192C25.6411 86.5672 27.0163 88.3712 28.5225 87.7626ZM715.803 86.6622C716.748 86.3008 717.409 85.596 717.658 84.6835C718.008 83.4057 717.27 82.0131 715.942 81.4451C715.352 81.1931 714.11 81.1931 713.52 81.4451C711.054 82.5002 711.161 85.7604 713.693 86.6741C714.195 86.8554 715.314 86.8491 715.803 86.6622ZM28.3044 83.365C29.9604 82.8995 29.6232 80.6161 27.8985 80.6161C26.7767 80.6161 26.0525 81.6453 26.5157 82.5812C26.8453 83.2469 27.5797 83.5687 28.3044 83.365ZM28.6145 78.7715C29.6934 78.1611 29.645 76.7593 28.5279 76.2676C27.1648 75.6675 25.7942 77.164 26.6418 78.327C27.0535 78.8919 28.0175 79.1092 28.6145 78.7715ZM715.295 77.8552C717.236 77.4894 718.31 75.5203 717.451 73.9017C716.316 71.7626 713.145 71.7638 712.01 73.904C710.932 75.9341 712.904 78.3057 715.295 77.8552ZM28.5251 74.3364C29.9853 73.7212 29.5018 71.6863 27.8954 71.6863C26.2611 71.6863 25.7918 73.7043 27.2787 74.3377C27.7275 74.5289 28.0692 74.5285 28.5251 74.3364ZM714.421 30.0163C714.543 29.9963 714.882 29.94 715.174 29.8912C717.834 29.4468 720.179 27.3794 720.938 24.8082C721.154 24.0762 721.165 22.1804 720.956 21.4822C720.147 18.7694 718.107 16.918 715.249 16.3027C714.371 16.1135 712.796 16.1333 711.898 16.3448C709.004 17.0268 706.758 19.2946 706.283 22.016C705.671 25.5204 708.103 28.9383 711.84 29.8249C712.49 29.979 713.977 30.0893 714.421 30.0163ZM712.252 28.2907C708.058 27.3656 706.48 22.4302 709.432 19.4719C712.197 16.7013 717.094 17.3529 718.84 20.7236C720.989 24.8742 717.086 29.3568 712.252 28.2907Z"/>
</mask>
<path d="M738.498 189.566L738.495 22.6319L726.584 11.566L714.674 0.5H581.074H63.5736L32.037 29.7561L0.5 59.0122V197.717V336.421L11.3223 346.461L22.1446 356.5H572.272H738.5L738.498 189.566ZM12.5171 345.352L2.18195 335.764V197.717V59.6692L33.232 30.8648L64.2821 2.06032H581.058H713.934L725.376 12.6745L736.818 23.2887V189.114V354.94H571.785H22.8523L12.5171 345.352ZM583.227 338.146V334.655H580.483H577.739V338.146V341.636H580.483H583.227V338.146ZM572.693 338.146V334.655H569.904H567.116V338.146V341.636H569.904H572.693V338.146ZM562.158 338.146V334.655H559.37H556.581V338.146V341.636H559.37H562.158V338.146ZM551.535 338.146V334.655H548.747H545.958V338.146V341.636H548.747H551.535V338.146ZM715.534 339.382C720.469 338.199 722.71 332.853 719.939 328.876C718.949 327.457 717.416 326.416 715.609 325.936C714.601 325.668 712.737 325.668 711.729 325.936C707.495 327.06 705.202 331.115 706.624 334.962C707.867 338.323 711.805 340.277 715.534 339.382ZM712.262 337.861C711.238 337.618 710.413 337.179 709.632 336.463C706.524 333.612 707.745 328.875 711.934 327.532C712.961 327.203 714.429 327.216 715.494 327.563C717.286 328.148 718.558 329.338 719.156 330.989C720.589 334.949 716.629 338.897 712.262 337.861ZM26.5516 339.419C29.2881 338.775 31.32 336.873 32.0774 334.245C32.3314 333.363 32.2845 331.693 31.9792 330.755C30.4855 326.162 24.7493 324.249 20.5486 326.943C16.6926 329.416 16.2053 334.573 19.5425 337.589C20.4971 338.452 21.4082 338.961 22.6755 339.337C23.579 339.606 25.5762 339.648 26.5516 339.419ZM23.3933 337.861C22.3331 337.609 21.5442 337.185 20.7194 336.425C17.195 333.176 19.4498 327.627 24.4277 327.299C28.0038 327.063 31.0447 330.106 30.5098 333.384C29.9885 336.58 26.7033 338.646 23.3933 337.861ZM28.3044 105.952C29.5445 105.584 29.7957 104.022 28.7129 103.412C27.3014 102.617 25.7219 104.114 26.6394 105.377C26.9857 105.854 27.7485 106.117 28.3044 105.952ZM23.2282 105.939C23.8757 105.757 24.4011 104.956 24.2648 104.357C23.9314 102.894 21.72 102.785 21.3058 104.212C20.9954 105.281 22.0845 106.26 23.2282 105.939ZM715.815 104.539C717.764 103.844 718.37 101.492 716.967 100.067C716.263 99.3528 715.808 99.17 714.731 99.17C713.943 99.17 713.797 99.1939 713.403 99.3884C711.517 100.319 711.125 102.492 712.599 103.858C713.493 104.688 714.689 104.941 715.815 104.539ZM28.5225 101.395C29.1416 101.145 29.5349 100.391 29.3602 99.7895C29.0419 98.6929 27.5977 98.3519 26.7805 99.1803C25.686 100.29 27.0297 101.998 28.5225 101.395ZM23.3881 101.395C24.0072 101.145 24.4004 100.391 24.2257 99.7895C23.9037 98.6803 22.4137 98.3434 21.6335 99.2035C20.5901 100.354 21.9038 101.995 23.3881 101.395ZM28.5269 96.9193C29.8019 96.3821 29.6211 94.6119 28.2586 94.2936C26.5144 93.8862 25.6244 96.1377 27.2319 96.891C27.7088 97.1145 28.046 97.1219 28.5269 96.9193ZM23.4 96.9162C24.8571 96.3024 24.3681 94.2601 22.764 94.2601C21.1365 94.2601 20.6568 96.2962 22.1373 96.92C22.5963 97.1134 22.9341 97.1124 23.4 96.9162ZM715.572 95.6897C717.832 95.0018 718.491 92.3928 716.774 90.9298C716.123 90.3753 715.675 90.2194 714.731 90.2194C711.524 90.2194 710.544 94.1147 713.403 95.4951C713.876 95.7233 715.101 95.8331 715.572 95.6897ZM28.6145 92.4038C29.6934 91.7934 29.645 90.3916 28.5279 89.8999C27.1648 89.2998 25.7942 90.7963 26.6418 91.9593C27.0535 92.5242 28.0175 92.7414 28.6145 92.4038ZM23.4801 92.4038C24.559 91.7934 24.5105 90.3916 23.3934 89.8999C22.0303 89.2998 20.6598 90.7963 21.5074 91.9593C21.9191 92.5242 22.8831 92.7414 23.4801 92.4038ZM28.5225 87.7626C29.1416 87.5124 29.5349 86.7589 29.3602 86.1572C29.0443 85.069 27.6935 84.7307 26.8123 85.5192C25.6411 86.5672 27.0163 88.3712 28.5225 87.7626ZM715.803 86.6622C716.748 86.3008 717.409 85.596 717.658 84.6835C718.008 83.4057 717.27 82.0131 715.942 81.4451C715.352 81.1931 714.11 81.1931 713.52 81.4451C711.054 82.5002 711.161 85.7604 713.693 86.6741C714.195 86.8554 715.314 86.8491 715.803 86.6622ZM28.3044 83.365C29.9604 82.8995 29.6232 80.6161 27.8985 80.6161C26.7767 80.6161 26.0525 81.6453 26.5157 82.5812C26.8453 83.2469 27.5797 83.5687 28.3044 83.365ZM28.6145 78.7715C29.6934 78.1611 29.645 76.7593 28.5279 76.2676C27.1648 75.6675 25.7942 77.164 26.6418 78.327C27.0535 78.8919 28.0175 79.1092 28.6145 78.7715ZM715.295 77.8552C717.236 77.4894 718.31 75.5203 717.451 73.9017C716.316 71.7626 713.145 71.7638 712.01 73.904C710.932 75.9341 712.904 78.3057 715.295 77.8552ZM28.5251 74.3364C29.9853 73.7212 29.5018 71.6863 27.8954 71.6863C26.2611 71.6863 25.7918 73.7043 27.2787 74.3377C27.7275 74.5289 28.0692 74.5285 28.5251 74.3364ZM714.421 30.0163C714.543 29.9963 714.882 29.94 715.174 29.8912C717.834 29.4468 720.179 27.3794 720.938 24.8082C721.154 24.0762 721.165 22.1804 720.956 21.4822C720.147 18.7694 718.107 16.918 715.249 16.3027C714.371 16.1135 712.796 16.1333 711.898 16.3448C709.004 17.0268 706.758 19.2946 706.283 22.016C705.671 25.5204 708.103 28.9383 711.84 29.8249C712.49 29.979 713.977 30.0893 714.421 30.0163ZM712.252 28.2907C708.058 27.3656 706.48 22.4302 709.432 19.4719C712.197 16.7013 717.094 17.3529 718.84 20.7236C720.989 24.8742 717.086 29.3568 712.252 28.2907Z" fill="#F28705"/>
<path d="M738.498 189.566L738.495 22.6319L726.584 11.566L714.674 0.5H581.074H63.5736L32.037 29.7561L0.5 59.0122V197.717V336.421L11.3223 346.461L22.1446 356.5H572.272H738.5L738.498 189.566ZM12.5171 345.352L2.18195 335.764V197.717V59.6692L33.232 30.8648L64.2821 2.06032H581.058H713.934L725.376 12.6745L736.818 23.2887V189.114V354.94H571.785H22.8523L12.5171 345.352ZM583.227 338.146V334.655H580.483H577.739V338.146V341.636H580.483H583.227V338.146ZM572.693 338.146V334.655H569.904H567.116V338.146V341.636H569.904H572.693V338.146ZM562.158 338.146V334.655H559.37H556.581V338.146V341.636H559.37H562.158V338.146ZM551.535 338.146V334.655H548.747H545.958V338.146V341.636H548.747H551.535V338.146ZM715.534 339.382C720.469 338.199 722.71 332.853 719.939 328.876C718.949 327.457 717.416 326.416 715.609 325.936C714.601 325.668 712.737 325.668 711.729 325.936C707.495 327.06 705.202 331.115 706.624 334.962C707.867 338.323 711.805 340.277 715.534 339.382ZM712.262 337.861C711.238 337.618 710.413 337.179 709.632 336.463C706.524 333.612 707.745 328.875 711.934 327.532C712.961 327.203 714.429 327.216 715.494 327.563C717.286 328.148 718.558 329.338 719.156 330.989C720.589 334.949 716.629 338.897 712.262 337.861ZM26.5516 339.419C29.2881 338.775 31.32 336.873 32.0774 334.245C32.3314 333.363 32.2845 331.693 31.9792 330.755C30.4855 326.162 24.7493 324.249 20.5486 326.943C16.6926 329.416 16.2053 334.573 19.5425 337.589C20.4971 338.452 21.4082 338.961 22.6755 339.337C23.579 339.606 25.5762 339.648 26.5516 339.419ZM23.3933 337.861C22.3331 337.609 21.5442 337.185 20.7194 336.425C17.195 333.176 19.4498 327.627 24.4277 327.299C28.0038 327.063 31.0447 330.106 30.5098 333.384C29.9885 336.58 26.7033 338.646 23.3933 337.861ZM28.3044 105.952C29.5445 105.584 29.7957 104.022 28.7129 103.412C27.3014 102.617 25.7219 104.114 26.6394 105.377C26.9857 105.854 27.7485 106.117 28.3044 105.952ZM23.2282 105.939C23.8757 105.757 24.4011 104.956 24.2648 104.357C23.9314 102.894 21.72 102.785 21.3058 104.212C20.9954 105.281 22.0845 106.26 23.2282 105.939ZM715.815 104.539C717.764 103.844 718.37 101.492 716.967 100.067C716.263 99.3528 715.808 99.17 714.731 99.17C713.943 99.17 713.797 99.1939 713.403 99.3884C711.517 100.319 711.125 102.492 712.599 103.858C713.493 104.688 714.689 104.941 715.815 104.539ZM28.5225 101.395C29.1416 101.145 29.5349 100.391 29.3602 99.7895C29.0419 98.6929 27.5977 98.3519 26.7805 99.1803C25.686 100.29 27.0297 101.998 28.5225 101.395ZM23.3881 101.395C24.0072 101.145 24.4004 100.391 24.2257 99.7895C23.9037 98.6803 22.4137 98.3434 21.6335 99.2035C20.5901 100.354 21.9038 101.995 23.3881 101.395ZM28.5269 96.9193C29.8019 96.3821 29.6211 94.6119 28.2586 94.2936C26.5144 93.8862 25.6244 96.1377 27.2319 96.891C27.7088 97.1145 28.046 97.1219 28.5269 96.9193ZM23.4 96.9162C24.8571 96.3024 24.3681 94.2601 22.764 94.2601C21.1365 94.2601 20.6568 96.2962 22.1373 96.92C22.5963 97.1134 22.9341 97.1124 23.4 96.9162ZM715.572 95.6897C717.832 95.0018 718.491 92.3928 716.774 90.9298C716.123 90.3753 715.675 90.2194 714.731 90.2194C711.524 90.2194 710.544 94.1147 713.403 95.4951C713.876 95.7233 715.101 95.8331 715.572 95.6897ZM28.6145 92.4038C29.6934 91.7934 29.645 90.3916 28.5279 89.8999C27.1648 89.2998 25.7942 90.7963 26.6418 91.9593C27.0535 92.5242 28.0175 92.7414 28.6145 92.4038ZM23.4801 92.4038C24.559 91.7934 24.5105 90.3916 23.3934 89.8999C22.0303 89.2998 20.6598 90.7963 21.5074 91.9593C21.9191 92.5242 22.8831 92.7414 23.4801 92.4038ZM28.5225 87.7626C29.1416 87.5124 29.5349 86.7589 29.3602 86.1572C29.0443 85.069 27.6935 84.7307 26.8123 85.5192C25.6411 86.5672 27.0163 88.3712 28.5225 87.7626ZM715.803 86.6622C716.748 86.3008 717.409 85.596 717.658 84.6835C718.008 83.4057 717.27 82.0131 715.942 81.4451C715.352 81.1931 714.11 81.1931 713.52 81.4451C711.054 82.5002 711.161 85.7604 713.693 86.6741C714.195 86.8554 715.314 86.8491 715.803 86.6622ZM28.3044 83.365C29.9604 82.8995 29.6232 80.6161 27.8985 80.6161C26.7767 80.6161 26.0525 81.6453 26.5157 82.5812C26.8453 83.2469 27.5797 83.5687 28.3044 83.365ZM28.6145 78.7715C29.6934 78.1611 29.645 76.7593 28.5279 76.2676C27.1648 75.6675 25.7942 77.164 26.6418 78.327C27.0535 78.8919 28.0175 79.1092 28.6145 78.7715ZM715.295 77.8552C717.236 77.4894 718.31 75.5203 717.451 73.9017C716.316 71.7626 713.145 71.7638 712.01 73.904C710.932 75.9341 712.904 78.3057 715.295 77.8552ZM28.5251 74.3364C29.9853 73.7212 29.5018 71.6863 27.8954 71.6863C26.2611 71.6863 25.7918 73.7043 27.2787 74.3377C27.7275 74.5289 28.0692 74.5285 28.5251 74.3364ZM714.421 30.0163C714.543 29.9963 714.882 29.94 715.174 29.8912C717.834 29.4468 720.179 27.3794 720.938 24.8082C721.154 24.0762 721.165 22.1804 720.956 21.4822C720.147 18.7694 718.107 16.918 715.249 16.3027C714.371 16.1135 712.796 16.1333 711.898 16.3448C709.004 17.0268 706.758 19.2946 706.283 22.016C705.671 25.5204 708.103 28.9383 711.84 29.8249C712.49 29.979 713.977 30.0893 714.421 30.0163ZM712.252 28.2907C708.058 27.3656 706.48 22.4302 709.432 19.4719C712.197 16.7013 717.094 17.3529 718.84 20.7236C720.989 24.8742 717.086 29.3568 712.252 28.2907Z" stroke="#F28705" mask="url(#path-1-outside-1_3743_830)"/>
</svg>
