<svg width="545" height="362" viewBox="0 0 545 362" fill="none" xmlns="http://www.w3.org/2000/svg">
<mask id="path-1-outside-1_3743_832" maskUnits="userSpaceOnUse" x="-0.5" y="-0.5" width="546" height="363" fill="black">
<rect fill="white" x="-0.5" y="-0.5" width="546" height="363"/>
<path d="M255.59 361.498L510.68 361.495L527.59 349.352L544.5 337.21V201.006V64.8027L499.794 32.6515L455.088 0.5H243.135H31.1819L15.841 11.5332L0.5 22.5664V192.033V361.5L255.59 361.498ZM17.5355 12.7513L32.1866 2.21475H243.135H454.084L498.1 33.8699L542.116 65.525V200.99V336.455L525.896 348.12L509.677 359.785H256.281H2.88434V191.537V23.2879L17.5355 12.7513ZM28.5471 203.201H33.8804V200.404V197.606H28.5471H23.2137V200.404V203.201H28.5471ZM28.5471 192.462H33.8804V189.619V186.776H28.5471H23.2137V189.619V192.462H28.5471ZM28.5471 181.722H33.8804V178.879V176.036H28.5471H23.2137V178.879V181.722H28.5471ZM28.5471 170.892H33.8804V168.049V165.206H28.5471H23.2137V168.049V170.892H28.5471ZM383.36 28.8463C383.922 30.1105 386.309 30.3666 387.241 29.2627C388.456 27.8237 386.168 26.2134 384.238 27.1488C383.51 27.5019 383.107 28.2795 383.36 28.8463ZM383.38 23.6711C383.657 24.3313 384.882 24.8668 385.797 24.7279C388.033 24.388 388.2 22.1336 386.019 21.7113C384.385 21.3949 382.89 22.5051 383.38 23.6711ZM385.519 338.373C386.581 340.36 390.176 340.978 392.353 339.547C393.444 338.83 393.723 338.366 393.723 337.268C393.723 336.464 393.687 336.316 393.39 335.914C391.967 333.991 388.647 333.592 386.56 335.094C385.292 336.006 384.905 337.225 385.519 338.373ZM390.324 29.0686C390.706 29.6998 391.857 30.1007 392.777 29.9226C394.452 29.5981 394.974 28.1258 393.708 27.2926C392.012 26.1768 389.402 27.5467 390.324 29.0686ZM390.324 23.8341C390.706 24.4653 391.857 24.8661 392.777 24.6881C394.472 24.3598 394.986 22.8407 393.672 22.0454C391.914 20.9816 389.407 22.3209 390.324 23.8341ZM397.163 29.073C397.984 30.373 400.689 30.1886 401.175 28.7995C401.798 27.0213 398.357 26.114 397.206 27.7528C396.864 28.239 396.853 28.5828 397.163 29.073ZM397.167 23.8462C398.105 25.3318 401.226 24.8333 401.226 23.1979C401.226 21.5387 398.115 21.0496 397.162 22.559C396.866 23.0269 396.868 23.3713 397.167 23.8462ZM399.042 338.125C400.093 340.43 404.08 341.101 406.315 339.351C407.162 338.687 407.401 338.23 407.401 337.268C407.401 333.999 401.448 332.999 399.339 335.914C398.99 336.396 398.822 337.645 399.042 338.125ZM404.063 29.1624C404.995 30.2623 407.138 30.2129 407.889 29.0741C408.806 27.6844 406.519 26.2872 404.742 27.1512C403.879 27.571 403.547 28.5538 404.063 29.1624ZM404.063 23.9279C404.995 25.0278 407.138 24.9784 407.889 23.8396C408.806 22.4499 406.519 21.0527 404.742 21.9167C403.879 22.3365 403.547 23.3193 404.063 23.9279ZM411.155 29.0686C411.537 29.6998 412.689 30.1007 413.608 29.9226C415.271 29.6006 415.788 28.2234 414.583 27.3251C412.982 26.131 410.225 27.5331 411.155 29.0686ZM412.836 338.361C413.389 339.324 414.466 339.998 415.86 340.252C417.813 340.609 419.941 339.856 420.809 338.502C421.194 337.901 421.194 336.634 420.809 336.034C419.196 333.519 414.214 333.628 412.818 336.209C412.541 336.722 412.551 337.862 412.836 338.361ZM417.875 28.8463C418.586 30.5345 422.075 30.1907 422.075 28.4324C422.075 27.2888 420.503 26.5505 419.073 27.0227C418.055 27.3587 417.564 28.1074 417.875 28.8463ZM424.894 29.1624C425.827 30.2623 427.969 30.2129 428.72 29.0741C429.637 27.6844 427.351 26.2872 425.573 27.1512C424.71 27.571 424.378 28.5538 424.894 29.1624ZM426.294 337.843C426.853 339.822 429.862 340.917 432.336 340.041C435.604 338.884 435.602 335.651 432.332 334.494C429.23 333.395 425.606 335.405 426.294 337.843ZM431.671 29.0712C432.611 30.5599 435.721 30.0669 435.721 28.4292C435.721 26.7631 432.637 26.2847 431.669 27.8006C431.377 28.2581 431.378 28.6064 431.671 29.0712Z"/>
</mask>
<path d="M255.59 361.498L510.68 361.495L527.59 349.352L544.5 337.21V201.006V64.8027L499.794 32.6515L455.088 0.5H243.135H31.1819L15.841 11.5332L0.5 22.5664V192.033V361.5L255.59 361.498ZM17.5355 12.7513L32.1866 2.21475H243.135H454.084L498.1 33.8699L542.116 65.525V200.99V336.455L525.896 348.12L509.677 359.785H256.281H2.88434V191.537V23.2879L17.5355 12.7513ZM28.5471 203.201H33.8804V200.404V197.606H28.5471H23.2137V200.404V203.201H28.5471ZM28.5471 192.462H33.8804V189.619V186.776H28.5471H23.2137V189.619V192.462H28.5471ZM28.5471 181.722H33.8804V178.879V176.036H28.5471H23.2137V178.879V181.722H28.5471ZM28.5471 170.892H33.8804V168.049V165.206H28.5471H23.2137V168.049V170.892H28.5471ZM383.36 28.8463C383.922 30.1105 386.309 30.3666 387.241 29.2627C388.456 27.8237 386.168 26.2134 384.238 27.1488C383.51 27.5019 383.107 28.2795 383.36 28.8463ZM383.38 23.6711C383.657 24.3313 384.882 24.8668 385.797 24.7279C388.033 24.388 388.2 22.1336 386.019 21.7113C384.385 21.3949 382.89 22.5051 383.38 23.6711ZM385.519 338.373C386.581 340.36 390.176 340.978 392.353 339.547C393.444 338.83 393.723 338.366 393.723 337.268C393.723 336.464 393.687 336.316 393.39 335.914C391.967 333.991 388.647 333.592 386.56 335.094C385.292 336.006 384.905 337.225 385.519 338.373ZM390.324 29.0686C390.706 29.6998 391.857 30.1007 392.777 29.9226C394.452 29.5981 394.974 28.1258 393.708 27.2926C392.012 26.1768 389.402 27.5467 390.324 29.0686ZM390.324 23.8341C390.706 24.4653 391.857 24.8661 392.777 24.6881C394.472 24.3598 394.986 22.8407 393.672 22.0454C391.914 20.9816 389.407 22.3209 390.324 23.8341ZM397.163 29.073C397.984 30.373 400.689 30.1886 401.175 28.7995C401.798 27.0213 398.357 26.114 397.206 27.7528C396.864 28.239 396.853 28.5828 397.163 29.073ZM397.167 23.8462C398.105 25.3318 401.226 24.8333 401.226 23.1979C401.226 21.5387 398.115 21.0496 397.162 22.559C396.866 23.0269 396.868 23.3713 397.167 23.8462ZM399.042 338.125C400.093 340.43 404.08 341.101 406.315 339.351C407.162 338.687 407.401 338.23 407.401 337.268C407.401 333.999 401.448 332.999 399.339 335.914C398.99 336.396 398.822 337.645 399.042 338.125ZM404.063 29.1624C404.995 30.2623 407.138 30.2129 407.889 29.0741C408.806 27.6844 406.519 26.2872 404.742 27.1512C403.879 27.571 403.547 28.5538 404.063 29.1624ZM404.063 23.9279C404.995 25.0278 407.138 24.9784 407.889 23.8396C408.806 22.4499 406.519 21.0527 404.742 21.9167C403.879 22.3365 403.547 23.3193 404.063 23.9279ZM411.155 29.0686C411.537 29.6998 412.689 30.1007 413.608 29.9226C415.271 29.6006 415.788 28.2234 414.583 27.3251C412.982 26.131 410.225 27.5331 411.155 29.0686ZM412.836 338.361C413.389 339.324 414.466 339.998 415.86 340.252C417.813 340.609 419.941 339.856 420.809 338.502C421.194 337.901 421.194 336.634 420.809 336.034C419.196 333.519 414.214 333.628 412.818 336.209C412.541 336.722 412.551 337.862 412.836 338.361ZM417.875 28.8463C418.586 30.5345 422.075 30.1907 422.075 28.4324C422.075 27.2888 420.503 26.5505 419.073 27.0227C418.055 27.3587 417.564 28.1074 417.875 28.8463ZM424.894 29.1624C425.827 30.2623 427.969 30.2129 428.72 29.0741C429.637 27.6844 427.351 26.2872 425.573 27.1512C424.71 27.571 424.378 28.5538 424.894 29.1624ZM426.294 337.843C426.853 339.822 429.862 340.917 432.336 340.041C435.604 338.884 435.602 335.651 432.332 334.494C429.23 333.395 425.606 335.405 426.294 337.843ZM431.671 29.0712C432.611 30.5599 435.721 30.0669 435.721 28.4292C435.721 26.7631 432.637 26.2847 431.669 27.8006C431.377 28.2581 431.378 28.6064 431.671 29.0712Z" fill="#F28705" data-part="dots"/>
<path d="M255.59 361.498L510.68 361.495L527.59 349.352L544.5 337.21V201.006V64.8027L499.794 32.6515L455.088 0.5H243.135H31.1819L15.841 11.5332L0.5 22.5664V192.033V361.5L255.59 361.498ZM17.5355 12.7513L32.1866 2.21475H243.135H454.084L498.1 33.8699L542.116 65.525V200.99V336.455L525.896 348.12L509.677 359.785H256.281H2.88434V191.537V23.2879L17.5355 12.7513ZM28.5471 203.201H33.8804V200.404V197.606H28.5471H23.2137V200.404V203.201H28.5471ZM28.5471 192.462H33.8804V189.619V186.776H28.5471H23.2137V189.619V192.462H28.5471ZM28.5471 181.722H33.8804V178.879V176.036H28.5471H23.2137V178.879V181.722H28.5471ZM28.5471 170.892H33.8804V168.049V165.206H28.5471H23.2137V168.049V170.892H28.5471ZM383.36 28.8463C383.922 30.1105 386.309 30.3666 387.241 29.2627C388.456 27.8237 386.168 26.2134 384.238 27.1488C383.51 27.5019 383.107 28.2795 383.36 28.8463ZM383.38 23.6711C383.657 24.3313 384.882 24.8668 385.797 24.7279C388.033 24.388 388.2 22.1336 386.019 21.7113C384.385 21.3949 382.89 22.5051 383.38 23.6711ZM385.519 338.373C386.581 340.36 390.176 340.978 392.353 339.547C393.444 338.83 393.723 338.366 393.723 337.268C393.723 336.464 393.687 336.316 393.39 335.914C391.967 333.991 388.647 333.592 386.56 335.094C385.292 336.006 384.905 337.225 385.519 338.373ZM390.324 29.0686C390.706 29.6998 391.857 30.1007 392.777 29.9226C394.452 29.5981 394.974 28.1258 393.708 27.2926C392.012 26.1768 389.402 27.5467 390.324 29.0686ZM390.324 23.8341C390.706 24.4653 391.857 24.8661 392.777 24.6881C394.472 24.3598 394.986 22.8407 393.672 22.0454C391.914 20.9816 389.407 22.3209 390.324 23.8341ZM397.163 29.073C397.984 30.373 400.689 30.1886 401.175 28.7995C401.798 27.0213 398.357 26.114 397.206 27.7528C396.864 28.239 396.853 28.5828 397.163 29.073ZM397.167 23.8462C398.105 25.3318 401.226 24.8333 401.226 23.1979C401.226 21.5387 398.115 21.0496 397.162 22.559C396.866 23.0269 396.868 23.3713 397.167 23.8462ZM399.042 338.125C400.093 340.43 404.08 341.101 406.315 339.351C407.162 338.687 407.401 338.23 407.401 337.268C407.401 333.999 401.448 332.999 399.339 335.914C398.99 336.396 398.822 337.645 399.042 338.125ZM404.063 29.1624C404.995 30.2623 407.138 30.2129 407.889 29.0741C408.806 27.6844 406.519 26.2872 404.742 27.1512C403.879 27.571 403.547 28.5538 404.063 29.1624ZM404.063 23.9279C404.995 25.0278 407.138 24.9784 407.889 23.8396C408.806 22.4499 406.519 21.0527 404.742 21.9167C403.879 22.3365 403.547 23.3193 404.063 23.9279ZM411.155 29.0686C411.537 29.6998 412.689 30.1007 413.608 29.9226C415.271 29.6006 415.788 28.2234 414.583 27.3251C412.982 26.131 410.225 27.5331 411.155 29.0686ZM412.836 338.361C413.389 339.324 414.466 339.998 415.86 340.252C417.813 340.609 419.941 339.856 420.809 338.502C421.194 337.901 421.194 336.634 420.809 336.034C419.196 333.519 414.214 333.628 412.818 336.209C412.541 336.722 412.551 337.862 412.836 338.361ZM417.875 28.8463C418.586 30.5345 422.075 30.1907 422.075 28.4324C422.075 27.2888 420.503 26.5505 419.073 27.0227C418.055 27.3587 417.564 28.1074 417.875 28.8463ZM424.894 29.1624C425.827 30.2623 427.969 30.2129 428.72 29.0741C429.637 27.6844 427.351 26.2872 425.573 27.1512C424.71 27.571 424.378 28.5538 424.894 29.1624ZM426.294 337.843C426.853 339.822 429.862 340.917 432.336 340.041C435.604 338.884 435.602 335.651 432.332 334.494C429.23 333.395 425.606 335.405 426.294 337.843ZM431.671 29.0712C432.611 30.5599 435.721 30.0669 435.721 28.4292C435.721 26.7631 432.637 26.2847 431.669 27.8006C431.377 28.2581 431.378 28.6064 431.671 29.0712Z" stroke="#F28705" mask="url(#path-1-outside-1_3743_832)" data-part="frame"/>
<path d="M27.3271 346.193C32.9293 344.501 35.2975 337.973 31.9863 333.178C28.9567 328.791 22.6339 328.226 18.9248 332.037C17.8834 333.107 17.252 334.158 16.7969 335.579C16.6074 336.171 16.5203 337.014 16.5029 337.782C16.4855 338.555 16.5349 339.407 16.6914 340.025C17.4808 343.143 19.8244 345.45 23.002 346.301C23.6111 346.464 24.41 346.515 25.1523 346.496C25.8991 346.477 26.7023 346.382 27.3271 346.193Z" stroke="#F28705" stroke-width="2" data-part="ticks"/>
</svg>
