<svg width="1373" height="116" viewBox="0 0 1373 116" fill="none" preserveAspectRatio="none" xmlns="http://www.w3.org/2000/svg">
<mask id="path-1-outside-1_3739_807" maskUnits="userSpaceOnUse" x="-1" y="-1" width="1375" height="118" fill="black">
<rect fill="white" x="-1" y="-1" width="1375" height="118"/>
<path d="M1053.6 115.45C1050.94 114.059 1050.02 112.182 1050.01 108.16L1050 105.32L1031.72 105.304L1013.44 105.289L1003.66 95.6756L993.875 86.0624L977.221 86.051L960.568 86.0396L956.804 89.8268L953.04 93.614H476.522H0V56.775V19.9361H461.934H923.869L927.116 23.2069L930.363 26.4776H957.146H983.929L991.819 18.559L999.708 10.6403H1024.85H1050L1050.01 7.79995C1050.01 5.7738 1050.2 4.55333 1050.66 3.54244C1052.63 -0.811949 1058.58 -1.24784 1061.23 2.76799C1062.04 3.99089 1062.18 4.60631 1062.3 7.40909L1062.44 10.6403H1090.08H1117.71L1125.69 18.3868L1133.67 26.1333H1151.46H1169.25L1177.02 18.3678L1184.79 10.6022L1259.58 10.6229L1334.38 10.6435L1353.69 30.007L1373 49.3705V62.5407V75.7109H1359.89H1346.77L1341.92 80.531L1337.08 85.351H1270.85H1204.62L1201.03 88.9661L1197.44 92.5811H1170.66H1143.87L1137.53 98.9504L1131.19 105.32H1096.81H1062.44L1062.3 108.551C1062.18 111.354 1062.04 111.969 1061.23 113.192C1059.58 115.688 1056.06 116.732 1053.61 115.45L1053.6 115.45ZM1058.17 114.134C1060.73 112.805 1061.05 111.523 1060.76 103.792L1060.53 97.6154L1059.46 96.4415C1057.28 94.0614 1053.48 94.6379 1052.06 97.5608C1051.09 99.5754 1051.03 109.963 1051.97 111.854C1053.15 114.212 1056 115.26 1058.17 114.134ZM1050 101.125C1050 97.7081 1050.81 95.7053 1052.7 94.4835C1055.24 92.8374 1057.96 93.0836 1060.26 95.1692C1061.82 96.5871 1062.36 98.1933 1062.36 101.487V103.943H1096.43H1130.5L1136.84 97.5733L1143.18 91.204H1169.91H1196.63L1200.42 87.5889L1204.21 83.9739H1270.33H1336.45L1341.25 79.1539L1346.04 74.3338H1348.19H1350.34V69.8581V65.3823H1353.95H1357.55V66.9316V68.4809H1359.95H1362.36V58.3244V48.1679H1359.95H1357.55V49.7172V51.2665H1353.95H1350.34V48.0835V44.9005L1337.56 32.0741L1324.77 19.2476H1278.86H1232.95V22.6905V26.1334H1229.35H1225.74V23.0348V19.9362H1201.45H1177.16L1173.4 23.7233L1169.63 27.5105H1151.26H1132.89L1125.17 19.764L1117.45 12.0175H1089.9H1062.36V14.4737C1062.36 17.7669 1061.82 19.3731 1060.26 20.7909C1058.56 22.3339 1056.51 22.8988 1054.65 22.3401C1051.31 21.3383 1050 19.2265 1050 14.8353V12.0175H1025.03H1000.05L992.162 19.9362L984.273 27.8548H956.975H929.677L926.43 24.5841L923.182 21.3133H462.278H1.373V27.8548V34.3963H15.1944H29.0158L32.9519 38.3556L36.8881 42.3149C36.9238 42.1435 36.6372 43.0035 36.6372 43.0035L32.4298 39.0442L28.2224 35.0849H14.7977H1.373V56.6029V78.121H15.023H28.673L32.4371 74.3338L36.2011 70.5466L36.5442 71.2352L32.7802 75.0224L29.0161 78.8096H15.1946H1.373V85.5232V92.2368H476.865H952.357L956.121 88.4497L959.885 84.6625H977.227H994.569L1004.18 94.3026L1013.78 103.943H1031.89H1050V101.125ZM1078.09 85.7109C1069.19 84.0749 1061.76 78.64 1057.71 70.813C1055.39 66.3389 1054.7 63.3902 1054.7 57.9801C1054.7 52.57 1055.39 49.6213 1057.71 45.1472C1062.3 36.2763 1071.04 30.6237 1081.06 30.0372C1092.58 29.3635 1103.32 35.912 1108.18 46.5766C1109.95 50.4616 1110.54 53.2804 1110.54 57.9801C1110.54 62.6798 1109.95 65.4986 1108.18 69.3836C1104.76 76.8957 1097.96 82.7846 1090.16 85.0029C1087.28 85.8219 1080.77 86.2038 1078.09 85.7109ZM1089.3 83.7801C1096.88 81.7292 1103.28 76.4017 1106.62 69.3684C1108.51 65.3953 1109.16 62.4906 1109.16 57.9801C1109.16 53.4695 1108.51 50.5649 1106.62 46.5918C1103.25 39.4992 1096.93 34.2699 1089.13 32.1216C1085.75 31.1907 1079.14 31.2584 1075.64 32.2597C1068.25 34.3758 1062.39 39.1214 1058.92 45.8006C1056.82 49.8454 1056.08 53.0304 1056.08 57.9801C1056.08 62.9298 1056.82 66.1148 1058.92 70.1595C1062.84 77.7128 1069.76 82.7374 1078.43 84.3339C1080.71 84.7526 1086.87 84.4386 1089.3 83.7801ZM1150.91 69.6859V63.6609H1152.8H1154.69V69.6859V75.711H1152.8H1150.91V69.6859ZM1158.47 69.6859V63.6609H1160.35H1162.24V69.6859V75.711H1160.35H1158.47V69.6859ZM1166.02 69.6859V63.6609H1167.91H1169.79V69.6859V75.711H1167.91H1166.02V69.6859ZM1173.57 69.6859V63.6609H1175.46H1177.34V69.6859V75.711H1175.46H1173.57V69.6859ZM1181.12 69.7031V63.6609H1183.19H1185.26L1185.16 69.5998L1185.07 75.5388L1183.09 75.6421L1181.12 75.7454V69.7031ZM1189.02 69.6859V63.6609H1190.9H1192.79V69.6859V75.711H1190.9H1189.02V69.6859ZM1196.57 69.6859V63.6609H1198.45H1200.34V69.6859V75.711H1198.45H1196.57V69.6859ZM1204.12 69.6859V63.6609H1206.01H1207.89V69.6859V75.711H1206.01H1204.12V69.6859ZM1211.67 69.6859V63.6609H1213.56H1215.45V69.6859V75.711H1213.56H1211.67V69.6859ZM1219.45 75.4814C1219.32 75.3552 1219.22 72.6439 1219.22 69.4564V63.6609H1221.28H1223.34V69.6859V75.711H1221.51C1220.5 75.711 1219.58 75.6077 1219.45 75.4814ZM1227.12 69.6859V63.6609H1229H1230.89V69.6859V75.711H1229H1227.12V69.6859ZM1252.86 69.6859V63.6609H1254.75H1256.64V69.6859V75.711H1254.75H1252.86V69.6859ZM1260.41 69.6859V63.6609H1262.3H1264.19V69.6859V75.711H1262.3H1260.41V69.6859ZM1267.96 69.6859V63.6609H1269.85H1271.74V69.6859V75.711H1269.85H1267.96V69.6859ZM1275.51 69.6859V63.6609H1277.4H1279.29V69.6859V75.711H1277.4H1275.51V69.6859ZM1283.41 69.6859V63.6609H1285.3H1287.18V69.6859V75.711H1285.3H1283.41V69.6859ZM1290.96 69.6859V63.6609H1292.85H1294.74V69.6859V75.711H1292.85H1290.96V69.6859ZM1298.51 69.6859V63.6609H1300.4H1302.29V69.6859V75.711H1300.4H1298.51V69.6859ZM1306.06 69.6859V63.6609H1307.95H1309.84V69.6859V75.711H1307.95H1306.06V69.6859ZM1313.61 69.7031V63.6609H1315.68H1317.75L1317.66 69.5998L1317.56 75.5388L1315.59 75.6421L1313.61 75.7454L1313.61 69.7031ZM1321.51 69.6859V63.6609H1323.4H1325.29V69.6859V75.711H1323.4H1321.51V69.6859ZM1329.06 69.6859V63.6609H1330.95H1332.84V69.6859V75.711H1330.95H1329.06V69.6859ZM1029.4 55.5701V36.462H1031.64H1033.87V55.5701V74.6781H1031.64H1029.4V55.5701ZM1038.33 55.5701V36.462H1040.39H1042.45V55.5701V74.6781H1040.39H1038.33V55.5701ZM899.897 73.0833C899.764 72.9505 899.656 71.2409 899.656 69.2842V65.7266H900.526H901.396L901.298 69.4236C901.219 72.4364 901.102 73.1395 900.669 73.2227C900.377 73.2789 900.029 73.2162 899.897 73.0833ZM905.835 69.5138C905.835 65.9561 905.876 65.7266 906.521 65.7266C907.166 65.7266 907.208 65.9561 907.208 69.5138C907.208 73.0714 907.166 73.301 906.521 73.301C905.876 73.301 905.835 73.0714 905.835 69.5138ZM911.67 69.5378V65.7266H912.54H913.409L913.312 69.4277C913.219 72.9696 913.181 73.1335 912.442 73.2388C911.681 73.3472 911.67 73.2931 911.67 69.5378ZM917.734 73.0715C917.608 72.9452 917.505 71.241 917.505 69.2843V65.7266H918.363H919.221V69.5138C919.221 72.9567 919.164 73.301 918.592 73.301C918.246 73.301 917.86 73.1977 917.734 73.0715ZM923.684 69.5378V65.7266H924.553H925.423L925.326 69.4277C925.233 72.9696 925.195 73.1335 924.456 73.2388C923.695 73.3472 923.684 73.2931 923.684 69.5378ZM929.76 73.0834C929.627 72.9506 929.519 71.241 929.519 69.2843V65.7266H930.389H931.258L931.161 69.4236C931.082 72.4364 930.965 73.1395 930.532 73.2227C930.239 73.2789 929.892 73.2163 929.76 73.0834ZM935.697 69.5138C935.697 65.9562 935.739 65.7266 936.384 65.7266C937.029 65.7266 937.07 65.9562 937.07 69.5138C937.07 73.0715 937.029 73.301 936.384 73.301C935.739 73.301 935.697 73.0715 935.697 69.5138ZM941.773 73.0834C941.641 72.9506 941.533 71.241 941.533 69.2843V65.7266H942.402H943.272L943.175 69.4236C943.095 72.4364 942.979 73.1395 942.546 73.2227C942.253 73.2789 941.906 73.2163 941.773 73.0834ZM947.711 69.5138C947.711 65.9562 947.753 65.7266 948.398 65.7266C949.042 65.7266 949.084 65.9562 949.084 69.5138C949.084 73.0715 949.042 73.301 948.398 73.301C947.753 73.301 947.711 73.0715 947.711 69.5138ZM953.787 73.0834C953.655 72.9506 953.546 71.241 953.546 69.2843V65.7266H954.416H955.286L955.188 69.4236C955.109 72.4364 954.993 73.1395 954.559 73.2227C954.267 73.2789 953.919 73.2163 953.787 73.0834ZM959.725 69.5138C959.725 65.9562 959.766 65.7266 960.411 65.7266C961.056 65.7266 961.098 65.9562 961.098 69.5138C961.098 73.0715 961.056 73.301 960.411 73.301C959.766 73.301 959.725 73.0715 959.725 69.5138ZM965.801 73.0834C965.668 72.9506 965.56 71.241 965.56 69.2843V65.7266H966.43H967.299L967.202 69.4236C967.123 72.4364 967.006 73.1395 966.573 73.2227C966.281 73.2789 965.933 73.2163 965.801 73.0834ZM971.738 69.5138C971.738 65.9562 971.78 65.7266 972.425 65.7266C973.07 65.7266 973.112 65.9562 973.112 69.5138C973.112 73.0715 973.07 73.301 972.425 73.301C971.78 73.301 971.738 73.0715 971.738 69.5138ZM977.814 73.0834C977.682 72.9506 977.574 71.241 977.574 69.2843V65.7266H978.443H979.313L979.216 69.4236C979.136 72.4364 979.02 73.1395 978.587 73.2227C978.294 73.2789 977.947 73.2163 977.814 73.0834ZM983.752 69.5138C983.752 65.9562 983.794 65.7266 984.439 65.7266C985.084 65.7266 985.125 65.9562 985.125 69.5138C985.125 73.0715 985.084 73.301 984.439 73.301C983.794 73.301 983.752 73.0715 983.752 69.5138ZM989.828 73.0834C989.696 72.9506 989.587 71.241 989.587 69.2843V65.7266H990.457H991.327L991.229 69.4236C991.15 72.4364 991.034 73.1395 990.6 73.2227C990.308 73.2789 989.961 73.2163 989.828 73.0834ZM995.766 69.5138C995.766 65.9562 995.808 65.7266 996.452 65.7266C997.097 65.7266 997.139 65.9562 997.139 69.5138C997.139 73.0715 997.097 73.301 996.452 73.301C995.808 73.301 995.766 73.0715 995.766 69.5138ZM1001.84 73.0834C1001.71 72.9506 1001.6 71.241 1001.6 69.2843V65.7266H1002.47H1003.34L1003.24 69.4236C1003.16 72.4364 1003.05 73.1395 1002.61 73.2227C1002.32 73.2789 1001.97 73.2163 1001.84 73.0834ZM1007.78 69.5138C1007.78 65.9562 1007.82 65.7266 1008.47 65.7266C1009.11 65.7266 1009.15 65.9562 1009.15 69.5138C1009.15 73.0715 1009.11 73.301 1008.47 73.301C1007.82 73.301 1007.78 73.0715 1007.78 69.5138ZM1013.86 73.0834C1013.72 72.9506 1013.61 71.241 1013.61 69.2843V65.7266H1014.48H1015.35L1015.26 69.4236C1015.18 72.4364 1015.06 73.1395 1014.63 73.2227C1014.34 73.2789 1013.99 73.2163 1013.86 73.0834ZM17.4822 68.4811C14.0556 67.8922 10.6589 65.3567 9.05117 62.1879C6.06092 56.2939 8.38856 49.2514 14.3168 46.2562C16.07 45.3705 16.6692 45.2514 19.3987 45.2467C22.2095 45.2424 22.7037 45.3453 24.7905 46.3749C28.8289 48.3672 30.9295 51.6206 31.1626 56.2445C31.2753 58.4785 31.1597 59.392 30.564 60.976C29.2319 64.5183 25.5139 67.752 22.1396 68.3031C19.5197 68.731 19.0423 68.7493 17.4822 68.4811ZM24.5847 66.6647C32.4303 62.6253 32.5043 51.4616 24.7139 47.1633C22.649 46.024 22.2655 45.9322 19.5652 45.9312C16.0932 45.9301 13.5557 46.9626 11.5444 49.1955C8.76248 52.2841 7.81936 56.7043 9.10981 60.6059C9.87338 62.9145 13.1228 66.2888 15.4462 67.1857C17.8222 68.1029 22.2855 67.8484 24.5847 66.6647ZM17.3341 62.8176C12.3416 60.9809 11.7056 54.1236 16.2786 51.4356C20.5264 48.9387 25.8229 51.924 25.8229 56.8152C25.8229 61.2188 21.4305 64.3247 17.3341 62.8176ZM1150.91 41.4542V35.4292H1152.8H1154.69V41.4542V47.4793H1152.8H1150.91V41.4542ZM1158.47 41.4542V35.4292H1160.35H1162.24V41.4542V47.4793H1160.35H1158.47V41.4542ZM1166.02 41.4542V35.4292H1167.91H1169.79V41.4542V47.4793H1167.91H1166.02V41.4542ZM1173.57 41.4542V35.4292H1175.46H1177.34V41.4542V47.4793H1175.46H1173.57V41.4542ZM1181.12 41.4714V35.4292H1183.19H1185.26L1185.16 41.3682L1185.07 47.3071L1183.09 47.4104L1181.12 47.5137V41.4714ZM1189.02 41.4542V35.4292H1190.9H1192.79V41.4542V47.4793H1190.9H1189.02V41.4542ZM1196.57 41.4542V35.4292H1198.45H1200.34V41.4542V47.4793H1198.45H1196.57V41.4542ZM1204.12 41.4542V35.4292H1206.01H1207.89V41.4542V47.4793H1206.01H1204.12V41.4542ZM1211.67 41.4542V35.4292H1213.56H1215.45V41.4542V47.4793H1213.56H1211.67V41.4542ZM1219.45 47.2498C1219.32 47.1235 1219.22 44.4122 1219.22 41.2247V35.4292H1221.28H1223.34V41.4542V47.4793H1221.51C1220.5 47.4793 1219.58 47.376 1219.45 47.2498ZM1227.12 41.4542V35.4292H1229H1230.89V41.4542V47.4793H1229H1227.12V41.4542ZM1252.86 41.4542V35.4292H1254.75H1256.64V41.4542V47.4793H1254.75H1252.86V41.4542ZM1260.41 41.4542V35.4292H1262.3H1264.19V41.4542V47.4793H1262.3H1260.41V41.4542ZM1267.96 41.4542V35.4292H1269.85H1271.74V41.4542V47.4793H1269.85H1267.96V41.4542ZM1275.51 41.4542V35.4292H1277.4H1279.29V41.4542V47.4793H1277.4H1275.51V41.4542ZM1283.41 41.4542V35.4292H1285.3H1287.18V41.4542V47.4793H1285.3H1283.41V41.4542ZM1290.96 41.4542V35.4292H1292.85H1294.74V41.4542V47.4793H1292.85H1290.96V41.4542ZM1298.51 41.4542V35.4292H1300.4H1302.29V41.4542V47.4793H1300.4H1298.51V41.4542ZM1306.06 41.4542V35.4292H1307.95H1309.84V41.4542V47.4793H1307.95H1306.06V41.4542ZM1313.61 41.4714V35.4292H1315.68H1317.75L1317.66 41.3682L1317.56 47.3071L1315.59 47.4104L1313.61 47.5137L1313.61 41.4714ZM899.656 42.6832V38.8721H900.526H901.396L901.298 42.5732C901.205 46.115 901.168 46.279 900.428 46.3843C899.667 46.4927 899.656 46.4385 899.656 42.6832ZM905.835 42.6593C905.835 39.1017 905.876 38.8721 906.521 38.8721C907.166 38.8721 907.208 39.1017 907.208 42.6593C907.208 46.217 907.166 46.4465 906.521 46.4465C905.876 46.4465 905.835 46.217 905.835 42.6593ZM911.67 42.6832V38.8721H912.54H913.409L913.312 42.5732C913.219 46.115 913.181 46.279 912.442 46.3843C911.681 46.4927 911.67 46.4385 911.67 42.6832ZM917.734 46.2169C917.608 46.0907 917.505 44.3865 917.505 42.4297V38.8721H918.363H919.221V42.6592C919.221 46.1021 919.164 46.4464 918.592 46.4464C918.246 46.4464 917.86 46.3432 917.734 46.2169ZM923.684 42.6832V38.8721H924.553H925.423L925.326 42.5732C925.233 46.115 925.195 46.279 924.456 46.3843C923.695 46.4927 923.684 46.4385 923.684 42.6832ZM929.748 46.2169C929.622 46.0907 929.519 44.3865 929.519 42.4297V38.8721H930.377H931.235V42.6592C931.235 46.1021 931.178 46.4464 930.606 46.4464C930.26 46.4464 929.874 46.3432 929.748 46.2169ZM935.697 42.6593C935.697 39.1016 935.739 38.8721 936.384 38.8721C937.029 38.8721 937.07 39.1016 937.07 42.6593C937.07 46.2169 937.029 46.4464 936.384 46.4464C935.739 46.4464 935.697 46.2169 935.697 42.6593ZM941.761 46.2169C941.636 46.0907 941.533 44.3865 941.533 42.4297V38.8721H942.391H943.249V42.6592C943.249 46.1021 943.192 46.4464 942.62 46.4464C942.273 46.4464 941.887 46.3432 941.761 46.2169ZM947.711 42.6593C947.711 39.1016 947.753 38.8721 948.398 38.8721C949.042 38.8721 949.084 39.1016 949.084 42.6593C949.084 46.2169 949.042 46.4464 948.398 46.4464C947.753 46.4464 947.711 46.2169 947.711 42.6593ZM953.775 46.2169C953.649 46.0907 953.546 44.3865 953.546 42.4297V38.8721H954.404H955.263V42.6592C955.263 46.1021 955.205 46.4464 954.633 46.4464C954.287 46.4464 953.901 46.3432 953.775 46.2169ZM959.725 42.6593C959.725 39.1016 959.766 38.8721 960.411 38.8721C961.056 38.8721 961.098 39.1016 961.098 42.6593C961.098 46.2169 961.056 46.4464 960.411 46.4464C959.766 46.4464 959.725 46.2169 959.725 42.6593ZM965.789 46.2169C965.663 46.0907 965.56 44.3865 965.56 42.4297V38.8721H966.418H967.276V42.6592C967.276 46.1021 967.219 46.4464 966.647 46.4464C966.301 46.4464 965.915 46.3432 965.789 46.2169ZM971.738 42.6593C971.738 39.1016 971.78 38.8721 972.425 38.8721C973.07 38.8721 973.112 39.1016 973.112 42.6593C973.112 46.2169 973.07 46.4464 972.425 46.4464C971.78 46.4464 971.738 46.2169 971.738 42.6593ZM977.574 42.6593V38.8721H978.432H979.29V42.6593V46.4464H978.432H977.574V42.6593ZM983.752 42.6593C983.752 39.1016 983.794 38.8721 984.439 38.8721C985.084 38.8721 985.125 39.1016 985.125 42.6593C985.125 46.2169 985.084 46.4464 984.439 46.4464C983.794 46.4464 983.752 46.2169 983.752 42.6593ZM989.587 42.6593V38.8721H990.446H991.304V42.6593V46.4464H990.446H989.587V42.6593ZM995.766 42.6593C995.766 39.1016 995.808 38.8721 996.452 38.8721C997.097 38.8721 997.139 39.1016 997.139 42.6593C997.139 46.2169 997.097 46.4464 996.452 46.4464C995.808 46.4464 995.766 46.2169 995.766 42.6593ZM1001.6 42.6593V38.8721H1002.46H1003.32V42.6593V46.4464H1002.46H1001.6V42.6593ZM1007.78 42.6593C1007.78 39.1016 1007.82 38.8721 1008.47 38.8721C1009.11 38.8721 1009.15 39.1016 1009.15 42.6593C1009.15 46.2169 1009.11 46.4464 1008.47 46.4464C1007.82 46.4464 1007.78 46.2169 1007.78 42.6593ZM1013.61 42.6593V38.8721H1014.47H1015.33V42.6593V46.4464H1014.47H1013.61V42.6593ZM1079.86 19.0755V14.7719H1081.75H1083.64V19.0755V23.3791H1081.75H1079.86V19.0755ZM1102.86 19.0755V14.7719H1104.75H1106.64V19.0755V23.3791H1104.75H1102.86V19.0755ZM1356.18 70.5467V66.7595H1353.95H1351.72V70.5467V74.3338H1353.95H1356.18V70.5467ZM1371.62 62.1965V50.0592L1352.66 31.0384L1333.69 12.0176H1283.32H1232.95V14.7719V17.5262H1279.02H1325.09L1338.15 30.6092L1351.21 43.6921H1354.38H1357.55V45.2414V46.7907H1360.64H1363.73V58.3244V69.8581H1360.64H1357.55V72.096V74.3338H1364.59H1371.62V62.1965ZM1356.18 47.4793V45.0693H1353.95H1351.72V47.4793V49.8893H1353.95H1356.18V47.4793ZM1231.58 18.3869V12.0175H1229.35H1227.12V18.3869V24.7562H1229.35H1231.58V18.3869ZM1059.44 19.5378L1060.53 18.3447L1060.76 12.1686C1060.91 8.38402 1060.86 5.54082 1060.66 4.82609C1059.43 0.620701 1053.95 0.165509 1051.97 4.10574C1051.04 5.97438 1051.09 16.3836 1052.05 18.3642C1053.01 20.3524 1054.2 21.022 1056.49 20.8612C1058.09 20.7489 1058.5 20.5653 1059.44 19.5378ZM1225.74 15.1161V12.0175L1205.58 12.0325L1185.41 12.0474L1182.15 15.1224L1178.89 18.1974L1202.32 18.206L1225.74 18.2146V15.1161Z"/>
</mask>
<path d="M1053.6 115.45C1050.94 114.059 1050.02 112.182 1050.01 108.16L1050 105.32L1031.72 105.304L1013.44 105.289L1003.66 95.6756L993.875 86.0624L977.221 86.051L960.568 86.0396L956.804 89.8268L953.04 93.614H476.522H0V56.775V19.9361H461.934H923.869L927.116 23.2069L930.363 26.4776H957.146H983.929L991.819 18.559L999.708 10.6403H1024.85H1050L1050.01 7.79995C1050.01 5.7738 1050.2 4.55333 1050.66 3.54244C1052.63 -0.811949 1058.58 -1.24784 1061.23 2.76799C1062.04 3.99089 1062.18 4.60631 1062.3 7.40909L1062.44 10.6403H1090.08H1117.71L1125.69 18.3868L1133.67 26.1333H1151.46H1169.25L1177.02 18.3678L1184.79 10.6022L1259.58 10.6229L1334.38 10.6435L1353.69 30.007L1373 49.3705V62.5407V75.7109H1359.89H1346.77L1341.92 80.531L1337.08 85.351H1270.85H1204.62L1201.03 88.9661L1197.44 92.5811H1170.66H1143.87L1137.53 98.9504L1131.19 105.32H1096.81H1062.44L1062.3 108.551C1062.18 111.354 1062.04 111.969 1061.23 113.192C1059.58 115.688 1056.06 116.732 1053.61 115.45L1053.6 115.45ZM1058.17 114.134C1060.73 112.805 1061.05 111.523 1060.76 103.792L1060.53 97.6154L1059.46 96.4415C1057.28 94.0614 1053.48 94.6379 1052.06 97.5608C1051.09 99.5754 1051.03 109.963 1051.97 111.854C1053.15 114.212 1056 115.26 1058.17 114.134ZM1050 101.125C1050 97.7081 1050.81 95.7053 1052.7 94.4835C1055.24 92.8374 1057.96 93.0836 1060.26 95.1692C1061.82 96.5871 1062.36 98.1933 1062.36 101.487V103.943H1096.43H1130.5L1136.84 97.5733L1143.18 91.204H1169.91H1196.63L1200.42 87.5889L1204.21 83.9739H1270.33H1336.45L1341.25 79.1539L1346.04 74.3338H1348.19H1350.34V69.8581V65.3823H1353.95H1357.55V66.9316V68.4809H1359.95H1362.36V58.3244V48.1679H1359.95H1357.55V49.7172V51.2665H1353.95H1350.34V48.0835V44.9005L1337.56 32.0741L1324.77 19.2476H1278.86H1232.95V22.6905V26.1334H1229.35H1225.74V23.0348V19.9362H1201.45H1177.16L1173.4 23.7233L1169.63 27.5105H1151.26H1132.89L1125.17 19.764L1117.45 12.0175H1089.9H1062.36V14.4737C1062.36 17.7669 1061.82 19.3731 1060.26 20.7909C1058.56 22.3339 1056.51 22.8988 1054.65 22.3401C1051.31 21.3383 1050 19.2265 1050 14.8353V12.0175H1025.03H1000.05L992.162 19.9362L984.273 27.8548H956.975H929.677L926.43 24.5841L923.182 21.3133H462.278H1.373V27.8548V34.3963H15.1944H29.0158L32.9519 38.3556L36.8881 42.3149C36.9238 42.1435 36.6372 43.0035 36.6372 43.0035L32.4298 39.0442L28.2224 35.0849H14.7977H1.373V56.6029V78.121H15.023H28.673L32.4371 74.3338L36.2011 70.5466L36.5442 71.2352L32.7802 75.0224L29.0161 78.8096H15.1946H1.373V85.5232V92.2368H476.865H952.357L956.121 88.4497L959.885 84.6625H977.227H994.569L1004.18 94.3026L1013.78 103.943H1031.89H1050V101.125ZM1078.09 85.7109C1069.19 84.0749 1061.76 78.64 1057.71 70.813C1055.39 66.3389 1054.7 63.3902 1054.7 57.9801C1054.7 52.57 1055.39 49.6213 1057.71 45.1472C1062.3 36.2763 1071.04 30.6237 1081.06 30.0372C1092.58 29.3635 1103.32 35.912 1108.18 46.5766C1109.95 50.4616 1110.54 53.2804 1110.54 57.9801C1110.54 62.6798 1109.95 65.4986 1108.18 69.3836C1104.76 76.8957 1097.96 82.7846 1090.16 85.0029C1087.28 85.8219 1080.77 86.2038 1078.09 85.7109ZM1089.3 83.7801C1096.88 81.7292 1103.28 76.4017 1106.62 69.3684C1108.51 65.3953 1109.16 62.4906 1109.16 57.9801C1109.16 53.4695 1108.51 50.5649 1106.62 46.5918C1103.25 39.4992 1096.93 34.2699 1089.13 32.1216C1085.75 31.1907 1079.14 31.2584 1075.64 32.2597C1068.25 34.3758 1062.39 39.1214 1058.92 45.8006C1056.82 49.8454 1056.08 53.0304 1056.08 57.9801C1056.08 62.9298 1056.82 66.1148 1058.92 70.1595C1062.84 77.7128 1069.76 82.7374 1078.43 84.3339C1080.71 84.7526 1086.87 84.4386 1089.3 83.7801ZM1150.91 69.6859V63.6609H1152.8H1154.69V69.6859V75.711H1152.8H1150.91V69.6859ZM1158.47 69.6859V63.6609H1160.35H1162.24V69.6859V75.711H1160.35H1158.47V69.6859ZM1166.02 69.6859V63.6609H1167.91H1169.79V69.6859V75.711H1167.91H1166.02V69.6859ZM1173.57 69.6859V63.6609H1175.46H1177.34V69.6859V75.711H1175.46H1173.57V69.6859ZM1181.12 69.7031V63.6609H1183.19H1185.26L1185.16 69.5998L1185.07 75.5388L1183.09 75.6421L1181.12 75.7454V69.7031ZM1189.02 69.6859V63.6609H1190.9H1192.79V69.6859V75.711H1190.9H1189.02V69.6859ZM1196.57 69.6859V63.6609H1198.45H1200.34V69.6859V75.711H1198.45H1196.57V69.6859ZM1204.12 69.6859V63.6609H1206.01H1207.89V69.6859V75.711H1206.01H1204.12V69.6859ZM1211.67 69.6859V63.6609H1213.56H1215.45V69.6859V75.711H1213.56H1211.67V69.6859ZM1219.45 75.4814C1219.32 75.3552 1219.22 72.6439 1219.22 69.4564V63.6609H1221.28H1223.34V69.6859V75.711H1221.51C1220.5 75.711 1219.58 75.6077 1219.45 75.4814ZM1227.12 69.6859V63.6609H1229H1230.89V69.6859V75.711H1229H1227.12V69.6859ZM1252.86 69.6859V63.6609H1254.75H1256.64V69.6859V75.711H1254.75H1252.86V69.6859ZM1260.41 69.6859V63.6609H1262.3H1264.19V69.6859V75.711H1262.3H1260.41V69.6859ZM1267.96 69.6859V63.6609H1269.85H1271.74V69.6859V75.711H1269.85H1267.96V69.6859ZM1275.51 69.6859V63.6609H1277.4H1279.29V69.6859V75.711H1277.4H1275.51V69.6859ZM1283.41 69.6859V63.6609H1285.3H1287.18V69.6859V75.711H1285.3H1283.41V69.6859ZM1290.96 69.6859V63.6609H1292.85H1294.74V69.6859V75.711H1292.85H1290.96V69.6859ZM1298.51 69.6859V63.6609H1300.4H1302.29V69.6859V75.711H1300.4H1298.51V69.6859ZM1306.06 69.6859V63.6609H1307.95H1309.84V69.6859V75.711H1307.95H1306.06V69.6859ZM1313.61 69.7031V63.6609H1315.68H1317.75L1317.66 69.5998L1317.56 75.5388L1315.59 75.6421L1313.61 75.7454L1313.61 69.7031ZM1321.51 69.6859V63.6609H1323.4H1325.29V69.6859V75.711H1323.4H1321.51V69.6859ZM1329.06 69.6859V63.6609H1330.95H1332.84V69.6859V75.711H1330.95H1329.06V69.6859ZM1029.4 55.5701V36.462H1031.64H1033.87V55.5701V74.6781H1031.64H1029.4V55.5701ZM1038.33 55.5701V36.462H1040.39H1042.45V55.5701V74.6781H1040.39H1038.33V55.5701ZM899.897 73.0833C899.764 72.9505 899.656 71.2409 899.656 69.2842V65.7266H900.526H901.396L901.298 69.4236C901.219 72.4364 901.102 73.1395 900.669 73.2227C900.377 73.2789 900.029 73.2162 899.897 73.0833ZM905.835 69.5138C905.835 65.9561 905.876 65.7266 906.521 65.7266C907.166 65.7266 907.208 65.9561 907.208 69.5138C907.208 73.0714 907.166 73.301 906.521 73.301C905.876 73.301 905.835 73.0714 905.835 69.5138ZM911.67 69.5378V65.7266H912.54H913.409L913.312 69.4277C913.219 72.9696 913.181 73.1335 912.442 73.2388C911.681 73.3472 911.67 73.2931 911.67 69.5378ZM917.734 73.0715C917.608 72.9452 917.505 71.241 917.505 69.2843V65.7266H918.363H919.221V69.5138C919.221 72.9567 919.164 73.301 918.592 73.301C918.246 73.301 917.86 73.1977 917.734 73.0715ZM923.684 69.5378V65.7266H924.553H925.423L925.326 69.4277C925.233 72.9696 925.195 73.1335 924.456 73.2388C923.695 73.3472 923.684 73.2931 923.684 69.5378ZM929.76 73.0834C929.627 72.9506 929.519 71.241 929.519 69.2843V65.7266H930.389H931.258L931.161 69.4236C931.082 72.4364 930.965 73.1395 930.532 73.2227C930.239 73.2789 929.892 73.2163 929.76 73.0834ZM935.697 69.5138C935.697 65.9562 935.739 65.7266 936.384 65.7266C937.029 65.7266 937.07 65.9562 937.07 69.5138C937.07 73.0715 937.029 73.301 936.384 73.301C935.739 73.301 935.697 73.0715 935.697 69.5138ZM941.773 73.0834C941.641 72.9506 941.533 71.241 941.533 69.2843V65.7266H942.402H943.272L943.175 69.4236C943.095 72.4364 942.979 73.1395 942.546 73.2227C942.253 73.2789 941.906 73.2163 941.773 73.0834ZM947.711 69.5138C947.711 65.9562 947.753 65.7266 948.398 65.7266C949.042 65.7266 949.084 65.9562 949.084 69.5138C949.084 73.0715 949.042 73.301 948.398 73.301C947.753 73.301 947.711 73.0715 947.711 69.5138ZM953.787 73.0834C953.655 72.9506 953.546 71.241 953.546 69.2843V65.7266H954.416H955.286L955.188 69.4236C955.109 72.4364 954.993 73.1395 954.559 73.2227C954.267 73.2789 953.919 73.2163 953.787 73.0834ZM959.725 69.5138C959.725 65.9562 959.766 65.7266 960.411 65.7266C961.056 65.7266 961.098 65.9562 961.098 69.5138C961.098 73.0715 961.056 73.301 960.411 73.301C959.766 73.301 959.725 73.0715 959.725 69.5138ZM965.801 73.0834C965.668 72.9506 965.56 71.241 965.56 69.2843V65.7266H966.43H967.299L967.202 69.4236C967.123 72.4364 967.006 73.1395 966.573 73.2227C966.281 73.2789 965.933 73.2163 965.801 73.0834ZM971.738 69.5138C971.738 65.9562 971.78 65.7266 972.425 65.7266C973.07 65.7266 973.112 65.9562 973.112 69.5138C973.112 73.0715 973.07 73.301 972.425 73.301C971.78 73.301 971.738 73.0715 971.738 69.5138ZM977.814 73.0834C977.682 72.9506 977.574 71.241 977.574 69.2843V65.7266H978.443H979.313L979.216 69.4236C979.136 72.4364 979.02 73.1395 978.587 73.2227C978.294 73.2789 977.947 73.2163 977.814 73.0834ZM983.752 69.5138C983.752 65.9562 983.794 65.7266 984.439 65.7266C985.084 65.7266 985.125 65.9562 985.125 69.5138C985.125 73.0715 985.084 73.301 984.439 73.301C983.794 73.301 983.752 73.0715 983.752 69.5138ZM989.828 73.0834C989.696 72.9506 989.587 71.241 989.587 69.2843V65.7266H990.457H991.327L991.229 69.4236C991.15 72.4364 991.034 73.1395 990.6 73.2227C990.308 73.2789 989.961 73.2163 989.828 73.0834ZM995.766 69.5138C995.766 65.9562 995.808 65.7266 996.452 65.7266C997.097 65.7266 997.139 65.9562 997.139 69.5138C997.139 73.0715 997.097 73.301 996.452 73.301C995.808 73.301 995.766 73.0715 995.766 69.5138ZM1001.84 73.0834C1001.71 72.9506 1001.6 71.241 1001.6 69.2843V65.7266H1002.47H1003.34L1003.24 69.4236C1003.16 72.4364 1003.05 73.1395 1002.61 73.2227C1002.32 73.2789 1001.97 73.2163 1001.84 73.0834ZM1007.78 69.5138C1007.78 65.9562 1007.82 65.7266 1008.47 65.7266C1009.11 65.7266 1009.15 65.9562 1009.15 69.5138C1009.15 73.0715 1009.11 73.301 1008.47 73.301C1007.82 73.301 1007.78 73.0715 1007.78 69.5138ZM1013.86 73.0834C1013.72 72.9506 1013.61 71.241 1013.61 69.2843V65.7266H1014.48H1015.35L1015.26 69.4236C1015.18 72.4364 1015.06 73.1395 1014.63 73.2227C1014.34 73.2789 1013.99 73.2163 1013.86 73.0834ZM17.4822 68.4811C14.0556 67.8922 10.6589 65.3567 9.05117 62.1879C6.06092 56.2939 8.38856 49.2514 14.3168 46.2562C16.07 45.3705 16.6692 45.2514 19.3987 45.2467C22.2095 45.2424 22.7037 45.3453 24.7905 46.3749C28.8289 48.3672 30.9295 51.6206 31.1626 56.2445C31.2753 58.4785 31.1597 59.392 30.564 60.976C29.2319 64.5183 25.5139 67.752 22.1396 68.3031C19.5197 68.731 19.0423 68.7493 17.4822 68.4811ZM24.5847 66.6647C32.4303 62.6253 32.5043 51.4616 24.7139 47.1633C22.649 46.024 22.2655 45.9322 19.5652 45.9312C16.0932 45.9301 13.5557 46.9626 11.5444 49.1955C8.76248 52.2841 7.81936 56.7043 9.10981 60.6059C9.87338 62.9145 13.1228 66.2888 15.4462 67.1857C17.8222 68.1029 22.2855 67.8484 24.5847 66.6647ZM17.3341 62.8176C12.3416 60.9809 11.7056 54.1236 16.2786 51.4356C20.5264 48.9387 25.8229 51.924 25.8229 56.8152C25.8229 61.2188 21.4305 64.3247 17.3341 62.8176ZM1150.91 41.4542V35.4292H1152.8H1154.69V41.4542V47.4793H1152.8H1150.91V41.4542ZM1158.47 41.4542V35.4292H1160.35H1162.24V41.4542V47.4793H1160.35H1158.47V41.4542ZM1166.02 41.4542V35.4292H1167.91H1169.79V41.4542V47.4793H1167.91H1166.02V41.4542ZM1173.57 41.4542V35.4292H1175.46H1177.34V41.4542V47.4793H1175.46H1173.57V41.4542ZM1181.12 41.4714V35.4292H1183.19H1185.26L1185.16 41.3682L1185.07 47.3071L1183.09 47.4104L1181.12 47.5137V41.4714ZM1189.02 41.4542V35.4292H1190.9H1192.79V41.4542V47.4793H1190.9H1189.02V41.4542ZM1196.57 41.4542V35.4292H1198.45H1200.34V41.4542V47.4793H1198.45H1196.57V41.4542ZM1204.12 41.4542V35.4292H1206.01H1207.89V41.4542V47.4793H1206.01H1204.12V41.4542ZM1211.67 41.4542V35.4292H1213.56H1215.45V41.4542V47.4793H1213.56H1211.67V41.4542ZM1219.45 47.2498C1219.32 47.1235 1219.22 44.4122 1219.22 41.2247V35.4292H1221.28H1223.34V41.4542V47.4793H1221.51C1220.5 47.4793 1219.58 47.376 1219.45 47.2498ZM1227.12 41.4542V35.4292H1229H1230.89V41.4542V47.4793H1229H1227.12V41.4542ZM1252.86 41.4542V35.4292H1254.75H1256.64V41.4542V47.4793H1254.75H1252.86V41.4542ZM1260.41 41.4542V35.4292H1262.3H1264.19V41.4542V47.4793H1262.3H1260.41V41.4542ZM1267.96 41.4542V35.4292H1269.85H1271.74V41.4542V47.4793H1269.85H1267.96V41.4542ZM1275.51 41.4542V35.4292H1277.4H1279.29V41.4542V47.4793H1277.4H1275.51V41.4542ZM1283.41 41.4542V35.4292H1285.3H1287.18V41.4542V47.4793H1285.3H1283.41V41.4542ZM1290.96 41.4542V35.4292H1292.85H1294.74V41.4542V47.4793H1292.85H1290.96V41.4542ZM1298.51 41.4542V35.4292H1300.4H1302.29V41.4542V47.4793H1300.4H1298.51V41.4542ZM1306.06 41.4542V35.4292H1307.95H1309.84V41.4542V47.4793H1307.95H1306.06V41.4542ZM1313.61 41.4714V35.4292H1315.68H1317.75L1317.66 41.3682L1317.56 47.3071L1315.59 47.4104L1313.61 47.5137L1313.61 41.4714ZM899.656 42.6832V38.8721H900.526H901.396L901.298 42.5732C901.205 46.115 901.168 46.279 900.428 46.3843C899.667 46.4927 899.656 46.4385 899.656 42.6832ZM905.835 42.6593C905.835 39.1017 905.876 38.8721 906.521 38.8721C907.166 38.8721 907.208 39.1017 907.208 42.6593C907.208 46.217 907.166 46.4465 906.521 46.4465C905.876 46.4465 905.835 46.217 905.835 42.6593ZM911.67 42.6832V38.8721H912.54H913.409L913.312 42.5732C913.219 46.115 913.181 46.279 912.442 46.3843C911.681 46.4927 911.67 46.4385 911.67 42.6832ZM917.734 46.2169C917.608 46.0907 917.505 44.3865 917.505 42.4297V38.8721H918.363H919.221V42.6592C919.221 46.1021 919.164 46.4464 918.592 46.4464C918.246 46.4464 917.86 46.3432 917.734 46.2169ZM923.684 42.6832V38.8721H924.553H925.423L925.326 42.5732C925.233 46.115 925.195 46.279 924.456 46.3843C923.695 46.4927 923.684 46.4385 923.684 42.6832ZM929.748 46.2169C929.622 46.0907 929.519 44.3865 929.519 42.4297V38.8721H930.377H931.235V42.6592C931.235 46.1021 931.178 46.4464 930.606 46.4464C930.26 46.4464 929.874 46.3432 929.748 46.2169ZM935.697 42.6593C935.697 39.1016 935.739 38.8721 936.384 38.8721C937.029 38.8721 937.07 39.1016 937.07 42.6593C937.07 46.2169 937.029 46.4464 936.384 46.4464C935.739 46.4464 935.697 46.2169 935.697 42.6593ZM941.761 46.2169C941.636 46.0907 941.533 44.3865 941.533 42.4297V38.8721H942.391H943.249V42.6592C943.249 46.1021 943.192 46.4464 942.62 46.4464C942.273 46.4464 941.887 46.3432 941.761 46.2169ZM947.711 42.6593C947.711 39.1016 947.753 38.8721 948.398 38.8721C949.042 38.8721 949.084 39.1016 949.084 42.6593C949.084 46.2169 949.042 46.4464 948.398 46.4464C947.753 46.4464 947.711 46.2169 947.711 42.6593ZM953.775 46.2169C953.649 46.0907 953.546 44.3865 953.546 42.4297V38.8721H954.404H955.263V42.6592C955.263 46.1021 955.205 46.4464 954.633 46.4464C954.287 46.4464 953.901 46.3432 953.775 46.2169ZM959.725 42.6593C959.725 39.1016 959.766 38.8721 960.411 38.8721C961.056 38.8721 961.098 39.1016 961.098 42.6593C961.098 46.2169 961.056 46.4464 960.411 46.4464C959.766 46.4464 959.725 46.2169 959.725 42.6593ZM965.789 46.2169C965.663 46.0907 965.56 44.3865 965.56 42.4297V38.8721H966.418H967.276V42.6592C967.276 46.1021 967.219 46.4464 966.647 46.4464C966.301 46.4464 965.915 46.3432 965.789 46.2169ZM971.738 42.6593C971.738 39.1016 971.78 38.8721 972.425 38.8721C973.07 38.8721 973.112 39.1016 973.112 42.6593C973.112 46.2169 973.07 46.4464 972.425 46.4464C971.78 46.4464 971.738 46.2169 971.738 42.6593ZM977.574 42.6593V38.8721H978.432H979.29V42.6593V46.4464H978.432H977.574V42.6593ZM983.752 42.6593C983.752 39.1016 983.794 38.8721 984.439 38.8721C985.084 38.8721 985.125 39.1016 985.125 42.6593C985.125 46.2169 985.084 46.4464 984.439 46.4464C983.794 46.4464 983.752 46.2169 983.752 42.6593ZM989.587 42.6593V38.8721H990.446H991.304V42.6593V46.4464H990.446H989.587V42.6593ZM995.766 42.6593C995.766 39.1016 995.808 38.8721 996.452 38.8721C997.097 38.8721 997.139 39.1016 997.139 42.6593C997.139 46.2169 997.097 46.4464 996.452 46.4464C995.808 46.4464 995.766 46.2169 995.766 42.6593ZM1001.6 42.6593V38.8721H1002.46H1003.32V42.6593V46.4464H1002.46H1001.6V42.6593ZM1007.78 42.6593C1007.78 39.1016 1007.82 38.8721 1008.47 38.8721C1009.11 38.8721 1009.15 39.1016 1009.15 42.6593C1009.15 46.2169 1009.11 46.4464 1008.47 46.4464C1007.82 46.4464 1007.78 46.2169 1007.78 42.6593ZM1013.61 42.6593V38.8721H1014.47H1015.33V42.6593V46.4464H1014.47H1013.61V42.6593ZM1079.86 19.0755V14.7719H1081.75H1083.64V19.0755V23.3791H1081.75H1079.86V19.0755ZM1102.86 19.0755V14.7719H1104.75H1106.64V19.0755V23.3791H1104.75H1102.86V19.0755ZM1356.18 70.5467V66.7595H1353.95H1351.72V70.5467V74.3338H1353.95H1356.18V70.5467ZM1371.62 62.1965V50.0592L1352.66 31.0384L1333.69 12.0176H1283.32H1232.95V14.7719V17.5262H1279.02H1325.09L1338.15 30.6092L1351.21 43.6921H1354.38H1357.55V45.2414V46.7907H1360.64H1363.73V58.3244V69.8581H1360.64H1357.55V72.096V74.3338H1364.59H1371.62V62.1965ZM1356.18 47.4793V45.0693H1353.95H1351.72V47.4793V49.8893H1353.95H1356.18V47.4793ZM1231.58 18.3869V12.0175H1229.35H1227.12V18.3869V24.7562H1229.35H1231.58V18.3869ZM1059.44 19.5378L1060.53 18.3447L1060.76 12.1686C1060.91 8.38402 1060.86 5.54082 1060.66 4.82609C1059.43 0.620701 1053.95 0.165509 1051.97 4.10574C1051.04 5.97438 1051.09 16.3836 1052.05 18.3642C1053.01 20.3524 1054.2 21.022 1056.49 20.8612C1058.09 20.7489 1058.5 20.5653 1059.44 19.5378ZM1225.74 15.1161V12.0175L1205.58 12.0325L1185.41 12.0474L1182.15 15.1224L1178.89 18.1974L1202.32 18.206L1225.74 18.2146V15.1161Z" fill="#F28705"/>
<path d="M1053.6 115.45C1050.94 114.059 1050.02 112.182 1050.01 108.16L1050 105.32L1031.72 105.304L1013.44 105.289L1003.66 95.6756L993.875 86.0624L977.221 86.051L960.568 86.0396L956.804 89.8268L953.04 93.614H476.522H0V56.775V19.9361H461.934H923.869L927.116 23.2069L930.363 26.4776H957.146H983.929L991.819 18.559L999.708 10.6403H1024.85H1050L1050.01 7.79995C1050.01 5.7738 1050.2 4.55333 1050.66 3.54244C1052.63 -0.811949 1058.58 -1.24784 1061.23 2.76799C1062.04 3.99089 1062.18 4.60631 1062.3 7.40909L1062.44 10.6403H1090.08H1117.71L1125.69 18.3868L1133.67 26.1333H1151.46H1169.25L1177.02 18.3678L1184.79 10.6022L1259.58 10.6229L1334.38 10.6435L1353.69 30.007L1373 49.3705V62.5407V75.7109H1359.89H1346.77L1341.92 80.531L1337.08 85.351H1270.85H1204.62L1201.03 88.9661L1197.44 92.5811H1170.66H1143.87L1137.53 98.9504L1131.19 105.32H1096.81H1062.44L1062.3 108.551C1062.18 111.354 1062.04 111.969 1061.23 113.192C1059.58 115.688 1056.06 116.732 1053.61 115.45L1053.6 115.45ZM1058.17 114.134C1060.73 112.805 1061.05 111.523 1060.76 103.792L1060.53 97.6154L1059.46 96.4415C1057.28 94.0614 1053.48 94.6379 1052.06 97.5608C1051.09 99.5754 1051.03 109.963 1051.97 111.854C1053.15 114.212 1056 115.26 1058.17 114.134ZM1050 101.125C1050 97.7081 1050.81 95.7053 1052.7 94.4835C1055.24 92.8374 1057.96 93.0836 1060.26 95.1692C1061.82 96.5871 1062.36 98.1933 1062.36 101.487V103.943H1096.43H1130.5L1136.84 97.5733L1143.18 91.204H1169.91H1196.63L1200.42 87.5889L1204.21 83.9739H1270.33H1336.45L1341.25 79.1539L1346.04 74.3338H1348.19H1350.34V69.8581V65.3823H1353.95H1357.55V66.9316V68.4809H1359.95H1362.36V58.3244V48.1679H1359.95H1357.55V49.7172V51.2665H1353.95H1350.34V48.0835V44.9005L1337.56 32.0741L1324.77 19.2476H1278.86H1232.95V22.6905V26.1334H1229.35H1225.74V23.0348V19.9362H1201.45H1177.16L1173.4 23.7233L1169.63 27.5105H1151.26H1132.89L1125.17 19.764L1117.45 12.0175H1089.9H1062.36V14.4737C1062.36 17.7669 1061.82 19.3731 1060.26 20.7909C1058.56 22.3339 1056.51 22.8988 1054.65 22.3401C1051.31 21.3383 1050 19.2265 1050 14.8353V12.0175H1025.03H1000.05L992.162 19.9362L984.273 27.8548H956.975H929.677L926.43 24.5841L923.182 21.3133H462.278H1.373V27.8548V34.3963H15.1944H29.0158L32.9519 38.3556L36.8881 42.3149C36.9238 42.1435 36.6372 43.0035 36.6372 43.0035L32.4298 39.0442L28.2224 35.0849H14.7977H1.373V56.6029V78.121H15.023H28.673L32.4371 74.3338L36.2011 70.5466L36.5442 71.2352L32.7802 75.0224L29.0161 78.8096H15.1946H1.373V85.5232V92.2368H476.865H952.357L956.121 88.4497L959.885 84.6625H977.227H994.569L1004.18 94.3026L1013.78 103.943H1031.89H1050V101.125ZM1078.09 85.7109C1069.19 84.0749 1061.76 78.64 1057.71 70.813C1055.39 66.3389 1054.7 63.3902 1054.7 57.9801C1054.7 52.57 1055.39 49.6213 1057.71 45.1472C1062.3 36.2763 1071.04 30.6237 1081.06 30.0372C1092.58 29.3635 1103.32 35.912 1108.18 46.5766C1109.95 50.4616 1110.54 53.2804 1110.54 57.9801C1110.54 62.6798 1109.95 65.4986 1108.18 69.3836C1104.76 76.8957 1097.96 82.7846 1090.16 85.0029C1087.28 85.8219 1080.77 86.2038 1078.09 85.7109ZM1089.3 83.7801C1096.88 81.7292 1103.28 76.4017 1106.62 69.3684C1108.51 65.3953 1109.16 62.4906 1109.16 57.9801C1109.16 53.4695 1108.51 50.5649 1106.62 46.5918C1103.25 39.4992 1096.93 34.2699 1089.13 32.1216C1085.75 31.1907 1079.14 31.2584 1075.64 32.2597C1068.25 34.3758 1062.39 39.1214 1058.92 45.8006C1056.82 49.8454 1056.08 53.0304 1056.08 57.9801C1056.08 62.9298 1056.82 66.1148 1058.92 70.1595C1062.84 77.7128 1069.76 82.7374 1078.43 84.3339C1080.71 84.7526 1086.87 84.4386 1089.3 83.7801ZM1150.91 69.6859V63.6609H1152.8H1154.69V69.6859V75.711H1152.8H1150.91V69.6859ZM1158.47 69.6859V63.6609H1160.35H1162.24V69.6859V75.711H1160.35H1158.47V69.6859ZM1166.02 69.6859V63.6609H1167.91H1169.79V69.6859V75.711H1167.91H1166.02V69.6859ZM1173.57 69.6859V63.6609H1175.46H1177.34V69.6859V75.711H1175.46H1173.57V69.6859ZM1181.12 69.7031V63.6609H1183.19H1185.26L1185.16 69.5998L1185.07 75.5388L1183.09 75.6421L1181.12 75.7454V69.7031ZM1189.02 69.6859V63.6609H1190.9H1192.79V69.6859V75.711H1190.9H1189.02V69.6859ZM1196.57 69.6859V63.6609H1198.45H1200.34V69.6859V75.711H1198.45H1196.57V69.6859ZM1204.12 69.6859V63.6609H1206.01H1207.89V69.6859V75.711H1206.01H1204.12V69.6859ZM1211.67 69.6859V63.6609H1213.56H1215.45V69.6859V75.711H1213.56H1211.67V69.6859ZM1219.45 75.4814C1219.32 75.3552 1219.22 72.6439 1219.22 69.4564V63.6609H1221.28H1223.34V69.6859V75.711H1221.51C1220.5 75.711 1219.58 75.6077 1219.45 75.4814ZM1227.12 69.6859V63.6609H1229H1230.89V69.6859V75.711H1229H1227.12V69.6859ZM1252.86 69.6859V63.6609H1254.75H1256.64V69.6859V75.711H1254.75H1252.86V69.6859ZM1260.41 69.6859V63.6609H1262.3H1264.19V69.6859V75.711H1262.3H1260.41V69.6859ZM1267.96 69.6859V63.6609H1269.85H1271.74V69.6859V75.711H1269.85H1267.96V69.6859ZM1275.51 69.6859V63.6609H1277.4H1279.29V69.6859V75.711H1277.4H1275.51V69.6859ZM1283.41 69.6859V63.6609H1285.3H1287.18V69.6859V75.711H1285.3H1283.41V69.6859ZM1290.96 69.6859V63.6609H1292.85H1294.74V69.6859V75.711H1292.85H1290.96V69.6859ZM1298.51 69.6859V63.6609H1300.4H1302.29V69.6859V75.711H1300.4H1298.51V69.6859ZM1306.06 69.6859V63.6609H1307.95H1309.84V69.6859V75.711H1307.95H1306.06V69.6859ZM1313.61 69.7031V63.6609H1315.68H1317.75L1317.66 69.5998L1317.56 75.5388L1315.59 75.6421L1313.61 75.7454L1313.61 69.7031ZM1321.51 69.6859V63.6609H1323.4H1325.29V69.6859V75.711H1323.4H1321.51V69.6859ZM1329.06 69.6859V63.6609H1330.95H1332.84V69.6859V75.711H1330.95H1329.06V69.6859ZM1029.4 55.5701V36.462H1031.64H1033.87V55.5701V74.6781H1031.64H1029.4V55.5701ZM1038.33 55.5701V36.462H1040.39H1042.45V55.5701V74.6781H1040.39H1038.33V55.5701ZM899.897 73.0833C899.764 72.9505 899.656 71.2409 899.656 69.2842V65.7266H900.526H901.396L901.298 69.4236C901.219 72.4364 901.102 73.1395 900.669 73.2227C900.377 73.2789 900.029 73.2162 899.897 73.0833ZM905.835 69.5138C905.835 65.9561 905.876 65.7266 906.521 65.7266C907.166 65.7266 907.208 65.9561 907.208 69.5138C907.208 73.0714 907.166 73.301 906.521 73.301C905.876 73.301 905.835 73.0714 905.835 69.5138ZM911.67 69.5378V65.7266H912.54H913.409L913.312 69.4277C913.219 72.9696 913.181 73.1335 912.442 73.2388C911.681 73.3472 911.67 73.2931 911.67 69.5378ZM917.734 73.0715C917.608 72.9452 917.505 71.241 917.505 69.2843V65.7266H918.363H919.221V69.5138C919.221 72.9567 919.164 73.301 918.592 73.301C918.246 73.301 917.86 73.1977 917.734 73.0715ZM923.684 69.5378V65.7266H924.553H925.423L925.326 69.4277C925.233 72.9696 925.195 73.1335 924.456 73.2388C923.695 73.3472 923.684 73.2931 923.684 69.5378ZM929.76 73.0834C929.627 72.9506 929.519 71.241 929.519 69.2843V65.7266H930.389H931.258L931.161 69.4236C931.082 72.4364 930.965 73.1395 930.532 73.2227C930.239 73.2789 929.892 73.2163 929.76 73.0834ZM935.697 69.5138C935.697 65.9562 935.739 65.7266 936.384 65.7266C937.029 65.7266 937.07 65.9562 937.07 69.5138C937.07 73.0715 937.029 73.301 936.384 73.301C935.739 73.301 935.697 73.0715 935.697 69.5138ZM941.773 73.0834C941.641 72.9506 941.533 71.241 941.533 69.2843V65.7266H942.402H943.272L943.175 69.4236C943.095 72.4364 942.979 73.1395 942.546 73.2227C942.253 73.2789 941.906 73.2163 941.773 73.0834ZM947.711 69.5138C947.711 65.9562 947.753 65.7266 948.398 65.7266C949.042 65.7266 949.084 65.9562 949.084 69.5138C949.084 73.0715 949.042 73.301 948.398 73.301C947.753 73.301 947.711 73.0715 947.711 69.5138ZM953.787 73.0834C953.655 72.9506 953.546 71.241 953.546 69.2843V65.7266H954.416H955.286L955.188 69.4236C955.109 72.4364 954.993 73.1395 954.559 73.2227C954.267 73.2789 953.919 73.2163 953.787 73.0834ZM959.725 69.5138C959.725 65.9562 959.766 65.7266 960.411 65.7266C961.056 65.7266 961.098 65.9562 961.098 69.5138C961.098 73.0715 961.056 73.301 960.411 73.301C959.766 73.301 959.725 73.0715 959.725 69.5138ZM965.801 73.0834C965.668 72.9506 965.56 71.241 965.56 69.2843V65.7266H966.43H967.299L967.202 69.4236C967.123 72.4364 967.006 73.1395 966.573 73.2227C966.281 73.2789 965.933 73.2163 965.801 73.0834ZM971.738 69.5138C971.738 65.9562 971.78 65.7266 972.425 65.7266C973.07 65.7266 973.112 65.9562 973.112 69.5138C973.112 73.0715 973.07 73.301 972.425 73.301C971.78 73.301 971.738 73.0715 971.738 69.5138ZM977.814 73.0834C977.682 72.9506 977.574 71.241 977.574 69.2843V65.7266H978.443H979.313L979.216 69.4236C979.136 72.4364 979.02 73.1395 978.587 73.2227C978.294 73.2789 977.947 73.2163 977.814 73.0834ZM983.752 69.5138C983.752 65.9562 983.794 65.7266 984.439 65.7266C985.084 65.7266 985.125 65.9562 985.125 69.5138C985.125 73.0715 985.084 73.301 984.439 73.301C983.794 73.301 983.752 73.0715 983.752 69.5138ZM989.828 73.0834C989.696 72.9506 989.587 71.241 989.587 69.2843V65.7266H990.457H991.327L991.229 69.4236C991.15 72.4364 991.034 73.1395 990.6 73.2227C990.308 73.2789 989.961 73.2163 989.828 73.0834ZM995.766 69.5138C995.766 65.9562 995.808 65.7266 996.452 65.7266C997.097 65.7266 997.139 65.9562 997.139 69.5138C997.139 73.0715 997.097 73.301 996.452 73.301C995.808 73.301 995.766 73.0715 995.766 69.5138ZM1001.84 73.0834C1001.71 72.9506 1001.6 71.241 1001.6 69.2843V65.7266H1002.47H1003.34L1003.24 69.4236C1003.16 72.4364 1003.05 73.1395 1002.61 73.2227C1002.32 73.2789 1001.97 73.2163 1001.84 73.0834ZM1007.78 69.5138C1007.78 65.9562 1007.82 65.7266 1008.47 65.7266C1009.11 65.7266 1009.15 65.9562 1009.15 69.5138C1009.15 73.0715 1009.11 73.301 1008.47 73.301C1007.82 73.301 1007.78 73.0715 1007.78 69.5138ZM1013.86 73.0834C1013.72 72.9506 1013.61 71.241 1013.61 69.2843V65.7266H1014.48H1015.35L1015.26 69.4236C1015.18 72.4364 1015.06 73.1395 1014.63 73.2227C1014.34 73.2789 1013.99 73.2163 1013.86 73.0834ZM17.4822 68.4811C14.0556 67.8922 10.6589 65.3567 9.05117 62.1879C6.06092 56.2939 8.38856 49.2514 14.3168 46.2562C16.07 45.3705 16.6692 45.2514 19.3987 45.2467C22.2095 45.2424 22.7037 45.3453 24.7905 46.3749C28.8289 48.3672 30.9295 51.6206 31.1626 56.2445C31.2753 58.4785 31.1597 59.392 30.564 60.976C29.2319 64.5183 25.5139 67.752 22.1396 68.3031C19.5197 68.731 19.0423 68.7493 17.4822 68.4811ZM24.5847 66.6647C32.4303 62.6253 32.5043 51.4616 24.7139 47.1633C22.649 46.024 22.2655 45.9322 19.5652 45.9312C16.0932 45.9301 13.5557 46.9626 11.5444 49.1955C8.76248 52.2841 7.81936 56.7043 9.10981 60.6059C9.87338 62.9145 13.1228 66.2888 15.4462 67.1857C17.8222 68.1029 22.2855 67.8484 24.5847 66.6647ZM17.3341 62.8176C12.3416 60.9809 11.7056 54.1236 16.2786 51.4356C20.5264 48.9387 25.8229 51.924 25.8229 56.8152C25.8229 61.2188 21.4305 64.3247 17.3341 62.8176ZM1150.91 41.4542V35.4292H1152.8H1154.69V41.4542V47.4793H1152.8H1150.91V41.4542ZM1158.47 41.4542V35.4292H1160.35H1162.24V41.4542V47.4793H1160.35H1158.47V41.4542ZM1166.02 41.4542V35.4292H1167.91H1169.79V41.4542V47.4793H1167.91H1166.02V41.4542ZM1173.57 41.4542V35.4292H1175.46H1177.34V41.4542V47.4793H1175.46H1173.57V41.4542ZM1181.12 41.4714V35.4292H1183.19H1185.26L1185.16 41.3682L1185.07 47.3071L1183.09 47.4104L1181.12 47.5137V41.4714ZM1189.02 41.4542V35.4292H1190.9H1192.79V41.4542V47.4793H1190.9H1189.02V41.4542ZM1196.57 41.4542V35.4292H1198.45H1200.34V41.4542V47.4793H1198.45H1196.57V41.4542ZM1204.12 41.4542V35.4292H1206.01H1207.89V41.4542V47.4793H1206.01H1204.12V41.4542ZM1211.67 41.4542V35.4292H1213.56H1215.45V41.4542V47.4793H1213.56H1211.67V41.4542ZM1219.45 47.2498C1219.32 47.1235 1219.22 44.4122 1219.22 41.2247V35.4292H1221.28H1223.34V41.4542V47.4793H1221.51C1220.5 47.4793 1219.58 47.376 1219.45 47.2498ZM1227.12 41.4542V35.4292H1229H1230.89V41.4542V47.4793H1229H1227.12V41.4542ZM1252.86 41.4542V35.4292H1254.75H1256.64V41.4542V47.4793H1254.75H1252.86V41.4542ZM1260.41 41.4542V35.4292H1262.3H1264.19V41.4542V47.4793H1262.3H1260.41V41.4542ZM1267.96 41.4542V35.4292H1269.85H1271.74V41.4542V47.4793H1269.85H1267.96V41.4542ZM1275.51 41.4542V35.4292H1277.4H1279.29V41.4542V47.4793H1277.4H1275.51V41.4542ZM1283.41 41.4542V35.4292H1285.3H1287.18V41.4542V47.4793H1285.3H1283.41V41.4542ZM1290.96 41.4542V35.4292H1292.85H1294.74V41.4542V47.4793H1292.85H1290.96V41.4542ZM1298.51 41.4542V35.4292H1300.4H1302.29V41.4542V47.4793H1300.4H1298.51V41.4542ZM1306.06 41.4542V35.4292H1307.95H1309.84V41.4542V47.4793H1307.95H1306.06V41.4542ZM1313.61 41.4714V35.4292H1315.68H1317.75L1317.66 41.3682L1317.56 47.3071L1315.59 47.4104L1313.61 47.5137L1313.61 41.4714ZM899.656 42.6832V38.8721H900.526H901.396L901.298 42.5732C901.205 46.115 901.168 46.279 900.428 46.3843C899.667 46.4927 899.656 46.4385 899.656 42.6832ZM905.835 42.6593C905.835 39.1017 905.876 38.8721 906.521 38.8721C907.166 38.8721 907.208 39.1017 907.208 42.6593C907.208 46.217 907.166 46.4465 906.521 46.4465C905.876 46.4465 905.835 46.217 905.835 42.6593ZM911.67 42.6832V38.8721H912.54H913.409L913.312 42.5732C913.219 46.115 913.181 46.279 912.442 46.3843C911.681 46.4927 911.67 46.4385 911.67 42.6832ZM917.734 46.2169C917.608 46.0907 917.505 44.3865 917.505 42.4297V38.8721H918.363H919.221V42.6592C919.221 46.1021 919.164 46.4464 918.592 46.4464C918.246 46.4464 917.86 46.3432 917.734 46.2169ZM923.684 42.6832V38.8721H924.553H925.423L925.326 42.5732C925.233 46.115 925.195 46.279 924.456 46.3843C923.695 46.4927 923.684 46.4385 923.684 42.6832ZM929.748 46.2169C929.622 46.0907 929.519 44.3865 929.519 42.4297V38.8721H930.377H931.235V42.6592C931.235 46.1021 931.178 46.4464 930.606 46.4464C930.26 46.4464 929.874 46.3432 929.748 46.2169ZM935.697 42.6593C935.697 39.1016 935.739 38.8721 936.384 38.8721C937.029 38.8721 937.07 39.1016 937.07 42.6593C937.07 46.2169 937.029 46.4464 936.384 46.4464C935.739 46.4464 935.697 46.2169 935.697 42.6593ZM941.761 46.2169C941.636 46.0907 941.533 44.3865 941.533 42.4297V38.8721H942.391H943.249V42.6592C943.249 46.1021 943.192 46.4464 942.62 46.4464C942.273 46.4464 941.887 46.3432 941.761 46.2169ZM947.711 42.6593C947.711 39.1016 947.753 38.8721 948.398 38.8721C949.042 38.8721 949.084 39.1016 949.084 42.6593C949.084 46.2169 949.042 46.4464 948.398 46.4464C947.753 46.4464 947.711 46.2169 947.711 42.6593ZM953.775 46.2169C953.649 46.0907 953.546 44.3865 953.546 42.4297V38.8721H954.404H955.263V42.6592C955.263 46.1021 955.205 46.4464 954.633 46.4464C954.287 46.4464 953.901 46.3432 953.775 46.2169ZM959.725 42.6593C959.725 39.1016 959.766 38.8721 960.411 38.8721C961.056 38.8721 961.098 39.1016 961.098 42.6593C961.098 46.2169 961.056 46.4464 960.411 46.4464C959.766 46.4464 959.725 46.2169 959.725 42.6593ZM965.789 46.2169C965.663 46.0907 965.56 44.3865 965.56 42.4297V38.8721H966.418H967.276V42.6592C967.276 46.1021 967.219 46.4464 966.647 46.4464C966.301 46.4464 965.915 46.3432 965.789 46.2169ZM971.738 42.6593C971.738 39.1016 971.78 38.8721 972.425 38.8721C973.07 38.8721 973.112 39.1016 973.112 42.6593C973.112 46.2169 973.07 46.4464 972.425 46.4464C971.78 46.4464 971.738 46.2169 971.738 42.6593ZM977.574 42.6593V38.8721H978.432H979.29V42.6593V46.4464H978.432H977.574V42.6593ZM983.752 42.6593C983.752 39.1016 983.794 38.8721 984.439 38.8721C985.084 38.8721 985.125 39.1016 985.125 42.6593C985.125 46.2169 985.084 46.4464 984.439 46.4464C983.794 46.4464 983.752 46.2169 983.752 42.6593ZM989.587 42.6593V38.8721H990.446H991.304V42.6593V46.4464H990.446H989.587V42.6593ZM995.766 42.6593C995.766 39.1016 995.808 38.8721 996.452 38.8721C997.097 38.8721 997.139 39.1016 997.139 42.6593C997.139 46.2169 997.097 46.4464 996.452 46.4464C995.808 46.4464 995.766 46.2169 995.766 42.6593ZM1001.6 42.6593V38.8721H1002.46H1003.32V42.6593V46.4464H1002.46H1001.6V42.6593ZM1007.78 42.6593C1007.78 39.1016 1007.82 38.8721 1008.47 38.8721C1009.11 38.8721 1009.15 39.1016 1009.15 42.6593C1009.15 46.2169 1009.11 46.4464 1008.47 46.4464C1007.82 46.4464 1007.78 46.2169 1007.78 42.6593ZM1013.61 42.6593V38.8721H1014.47H1015.33V42.6593V46.4464H1014.47H1013.61V42.6593ZM1079.86 19.0755V14.7719H1081.75H1083.64V19.0755V23.3791H1081.75H1079.86V19.0755ZM1102.86 19.0755V14.7719H1104.75H1106.64V19.0755V23.3791H1104.75H1102.86V19.0755ZM1356.18 70.5467V66.7595H1353.95H1351.72V70.5467V74.3338H1353.95H1356.18V70.5467ZM1371.62 62.1965V50.0592L1352.66 31.0384L1333.69 12.0176H1283.32H1232.95V14.7719V17.5262H1279.02H1325.09L1338.15 30.6092L1351.21 43.6921H1354.38H1357.55V45.2414V46.7907H1360.64H1363.73V58.3244V69.8581H1360.64H1357.55V72.096V74.3338H1364.59H1371.62V62.1965ZM1356.18 47.4793V45.0693H1353.95H1351.72V47.4793V49.8893H1353.95H1356.18V47.4793ZM1231.58 18.3869V12.0175H1229.35H1227.12V18.3869V24.7562H1229.35H1231.58V18.3869ZM1059.44 19.5378L1060.53 18.3447L1060.76 12.1686C1060.91 8.38402 1060.86 5.54082 1060.66 4.82609C1059.43 0.620701 1053.95 0.165509 1051.97 4.10574C1051.04 5.97438 1051.09 16.3836 1052.05 18.3642C1053.01 20.3524 1054.2 21.022 1056.49 20.8612C1058.09 20.7489 1058.5 20.5653 1059.44 19.5378ZM1225.74 15.1161V12.0175L1205.58 12.0325L1185.41 12.0474L1182.15 15.1224L1178.89 18.1974L1202.32 18.206L1225.74 18.2146V15.1161Z" stroke="#F28705" mask="url(#path-1-outside-1_3739_807)"/>
</svg>
