<svg width="1440" height="900" viewBox="0 0 1440 900" fill="none" xmlns="http://www.w3.org/2000/svg">
<mask id="mask0_3659_542" style="mask-type:luminance" maskUnits="userSpaceOnUse" x="0" y="0" width="1440" height="900">
<path d="M1440 0L0 0L0 900L1440 900L1440 0Z" fill="white"/>
</mask>
<g mask="url(#mask0_3659_542)">
<path d="M0 0.996701H1440V898.007H0V0.996701Z" fill="#F28705"/>
<path d="M-118.207 -5.35739H1558.04C1371.75 94.2089 1185.47 193.775 999.344 293.342H440.65C254.364 193.775 68.0787 94.2855 -118.207 -5.35739Z" fill="#080808"/>
<path d="M999.835 293.954H439.998L439.672 293.724L-120.818 -5.89307L1560.81 -5.89307L1559.02 -4.9747L999.835 293.954ZM441.141 292.806H998.856L1555.43 -4.74511H-115.594L440.978 292.882L441.141 292.806Z" fill="#F28705"/>
<path d="M1571.59 1.91281V898.086C1385.31 798.52 1199.02 698.954 1012.9 599.387V300.688C1199.18 201.122 1385.47 101.556 1571.59 1.98934V1.91281Z" fill="#080808"/>
<path d="M1572.9 899.541L1011.76 599.541V300.382L1012.08 300.229L1572.9 0.382389V899.541ZM1014.04 599.158L1570.45 896.556V3.36708L1014.04 300.765V599.158Z" fill="#F28705"/>
<path d="M-131.756 898.086V1.91281C54.5298 101.479 240.816 201.045 426.938 300.612V599.311C240.816 698.954 54.5298 798.443 -131.756 898.086Z" fill="#080808"/>
<path d="M-132.898 899.541V0.382389L428.244 300.382V599.541L427.918 599.694L-132.898 899.541ZM-130.449 3.36708V896.556L425.959 599.158V300.842L-130.449 3.36708Z" fill="#F28705"/>
<path d="M1558.04 905.28H-118.207C68.0787 805.714 254.364 706.148 440.487 606.581H999.181C1185.47 706.148 1371.75 805.714 1557.87 905.28H1558.04Z" fill="#080808"/>
<path d="M1560.81 905.816H-120.818L-119.022 904.898L440.161 605.969H999.998L1000.33 606.199L1560.81 905.816ZM-115.594 904.745H1555.43L998.692 607.194H440.978L-115.594 904.745Z" fill="#F28705"/>
<path d="M992.026 297.01H447.226C439.369 297.01 433 299.986 433 303.656V595.795C433 599.466 439.369 602.441 447.226 602.441H992.026C999.882 602.441 1006.25 599.466 1006.25 595.795V303.656C1006.25 299.986 999.882 297.01 992.026 297.01Z" fill="#080808"/>
</g>
</svg>
