<svg width="1440" height="900" viewBox="0 0 1440 900" fill="none" xmlns="http://www.w3.org/2000/svg">
<mask id="mask0_3659_542" style="mask-type:luminance" maskUnits="userSpaceOnUse" x="0" y="0" width="1440" height="900">
<path d="M1440 0L0 0L0 900L1440 900L1440 0Z" fill="white"/>
</mask>
<g mask="url(#mask0_3659_542)">
<path d="M1034.28 274.132L405.713 274.132V275.28L1034.28 275.28V274.132Z" fill="#F28705"/>
<path d="M1079.18 250.178L360.816 250.178V251.326L1079.18 251.326V250.178Z" fill="#F28705"/>
<path d="M1139.1 218.112L300.896 218.112V219.26L1139.1 219.26V218.112Z" fill="#F28705"/>
<path d="M1222.85 173.342L217.141 173.342V174.49L1222.85 174.49V173.342Z" fill="#F28705"/>
<path d="M1348.57 106.148L91.4277 106.148V107.296L1348.57 107.296V106.148Z" fill="#F28705"/>
<path d="M1277.81 -5.5934L905.402 293.137L907.517 293.716L1279.92 -5.01423L1277.81 -5.5934Z" fill="#F28705"/>
<path d="M998.095 -5.47495L812.178 293.325L814.529 293.647L1000.45 -5.15353L998.095 -5.47495Z" fill="#F28705"/>
<path d="M721.142 -5.35742L718.693 -5.35742L718.693 293.341H721.142L721.142 -5.35742Z" fill="#F28705"/>
<path d="M625.631 293.571C563.591 194.005 501.387 94.4385 439.346 -5.12784L441.631 -5.43396C503.672 94.1323 565.713 193.699 627.917 293.265L625.631 293.571Z" fill="#F28705"/>
<path d="M162.341 -5.62683L160.227 -5.04749L532.741 293.652L534.855 293.073L162.341 -5.62683Z" fill="#F28705"/>
<path d="M1048.98 281.938H1046.53L1046.53 617.984H1048.98L1048.98 281.938Z" fill="#F28705"/>
<path d="M1093.88 257.984H1091.43L1091.43 642.015H1093.88L1093.88 257.984Z" fill="#F28705"/>
<path d="M1153.8 225.918H1151.35L1151.35 674.004H1153.8L1153.8 225.918Z" fill="#F28705"/>
<path d="M1237.55 181.147H1235.1L1235.1 718.852H1237.55L1237.55 181.147Z" fill="#F28705"/>
<path d="M1363.43 113.954H1360.98L1360.98 786.046H1363.43L1363.43 113.954Z" fill="#F28705"/>
<path d="M1570.94 749.157L1012.08 550.025L1013.55 549.106L1028.08 554.234L1572.41 748.239L1570.94 749.157Z" fill="#F28705"/>
<path d="M1571.27 599.846L1012.41 500.28L1013.39 499.209L1572.08 598.775L1571.27 599.846Z" fill="#F28705"/>
<path d="M1571.59 449.387L1012.9 449.387V450.535L1571.59 450.535V449.387Z" fill="#F28705"/>
<path d="M1013.39 400.714L1012.41 399.642L1571.27 300.076L1572.08 301.147L1013.39 400.714Z" fill="#F28705"/>
<path d="M1013.55 350.892L1012.08 349.974L1570.94 150.841L1572.41 151.683L1013.55 350.892Z" fill="#F28705"/>
<path d="M393.304 281.938H390.855L390.855 617.984H393.304L393.304 281.938Z" fill="#F28705"/>
<path d="M348.408 257.984H345.959L345.959 642.015H348.408L348.408 257.984Z" fill="#F28705"/>
<path d="M288.652 225.918H286.203L286.203 674.004H288.652L288.652 225.918Z" fill="#F28705"/>
<path d="M204.734 181.147H202.285L202.285 718.852H204.734L204.734 181.147Z" fill="#F28705"/>
<path d="M79.0193 113.954H76.5703L76.5703 786.046H79.0193L79.0193 113.954Z" fill="#F28705"/>
<path d="M426.284 350.892L-132.41 151.683L-130.941 150.841L427.753 349.974L426.284 350.892Z" fill="#F28705"/>
<path d="M426.612 400.714L-132.082 301.147L-131.266 300.076L427.428 399.642L426.612 400.714Z" fill="#F28705"/>
<path d="M426.938 449.387L-131.756 449.387V450.535L426.938 450.535V449.387Z" fill="#F28705"/>
<path d="M-131.266 599.846L-132.082 598.775L426.612 499.209L427.428 500.28L-131.266 599.846Z" fill="#F28705"/>
<path d="M-130.941 749.157L-132.41 748.239L426.284 549.106L427.753 550.025L-130.941 749.157Z" fill="#F28705"/>
<path d="M1034.28 624.643L405.713 624.643V625.791L1034.28 625.791V624.643Z" fill="#F28705"/>
<path d="M1079.18 648.673L360.816 648.673V649.821L1079.18 649.821V648.673Z" fill="#F28705"/>
<path d="M1139.1 680.663L300.896 680.663V681.811L1139.1 681.811V680.663Z" fill="#F28705"/>
<path d="M1222.85 725.51L217.141 725.51V726.658L1222.85 726.658V725.51Z" fill="#F28705"/>
<path d="M1348.57 792.704L91.4277 792.704V793.852L1348.57 793.852V792.704Z" fill="#F28705"/>
<path d="M532.76 606.218L160.246 904.918L162.36 905.497L534.875 606.797L532.76 606.218Z" fill="#F28705"/>
<path d="M441.795 905.433L439.51 905.127C501.551 805.561 563.591 705.995 625.795 606.428L628.081 606.734C566.04 706.301 503.836 805.867 441.795 905.433Z" fill="#F28705"/>
<path d="M721.142 606.581H718.693L718.693 905.28H721.142L721.142 606.581Z" fill="#F28705"/>
<path d="M814.206 606.403L811.855 606.725L998.061 905.406L1000.41 905.084L814.206 606.403Z" fill="#F28705"/>
<path d="M1277.71 905.587C1153.47 806.02 1029.39 706.454 905.143 606.888L907.265 606.352C1031.51 705.918 1155.59 805.485 1279.84 905.051L1277.71 905.587Z" fill="#F28705"/>
</g>
</svg>
